<svg xmlns="http://www.w3.org/2000/svg" xmlns:xlink="http://www.w3.org/1999/xlink" viewBox="0 0 750 500"><defs><clipPath id="freepik--clip-path--inject-334"><rect x="370.17" y="30.78" width="3.11" height="41.21" style="fill:none"></rect></clipPath></defs><g id="freepik--background-complete--inject-334"><polygon points="184.7 418.29 149.22 418.29 146.08 412.01 181.57 412.01 184.7 418.29" style="fill:#e0e0e0"></polygon><polygon points="188.97 427.23 153.48 427.23 150.34 420.95 185.83 420.95 188.97 427.23" style="fill:#e0e0e0"></polygon><polygon points="193.23 436.16 157.74 436.16 154.6 429.88 190.09 429.88 193.23 436.16" style="fill:#e0e0e0"></polygon><polygon points="197.49 445.1 162 445.1 158.87 438.82 194.35 438.82 197.49 445.1" style="fill:#e0e0e0"></polygon><polygon points="201.75 454.03 166.26 454.03 163.13 447.76 198.61 447.76 201.75 454.03" style="fill:#e0e0e0"></polygon><polygon points="206.01 462.97 170.52 462.97 167.39 456.69 202.87 456.69 206.01 462.97" style="fill:#e0e0e0"></polygon><polygon points="637.55 418.29 602.06 418.29 598.92 412.01 634.41 412.01 637.55 418.29" style="fill:#e0e0e0"></polygon><polygon points="641.81 427.23 606.32 427.23 603.19 420.95 638.67 420.95 641.81 427.23" style="fill:#e0e0e0"></polygon><polygon points="646.07 436.16 610.58 436.16 607.45 429.88 642.93 429.88 646.07 436.16" style="fill:#e0e0e0"></polygon><polygon points="650.33 445.1 614.84 445.1 611.71 438.82 647.19 438.82 650.33 445.1" style="fill:#e0e0e0"></polygon><polygon points="654.59 454.03 619.1 454.03 615.97 447.76 651.45 447.76 654.59 454.03" style="fill:#e0e0e0"></polygon><polygon points="658.85 462.97 623.37 462.97 620.23 456.69 655.71 456.69 658.85 462.97" style="fill:#e0e0e0"></polygon><polygon points="407.49 350.35 372 350.35 368.86 344.82 404.35 344.82 407.49 350.35" style="fill:#e0e0e0"></polygon><polygon points="411.75 358.23 376.26 358.23 373.12 352.7 408.61 352.7 411.75 358.23" style="fill:#e0e0e0"></polygon><polygon points="416.01 366.11 380.52 366.11 377.38 360.58 412.87 360.58 416.01 366.11" style="fill:#e0e0e0"></polygon><polygon points="420.27 373.99 384.78 373.99 381.65 368.46 417.13 368.46 420.27 373.99" style="fill:#e0e0e0"></polygon><polygon points="424.53 381.87 389.04 381.87 385.91 376.34 421.39 376.34 424.53 381.87" style="fill:#e0e0e0"></polygon><polygon points="428.79 389.75 393.3 389.75 390.17 384.22 425.65 384.22 428.79 389.75" style="fill:#e0e0e0"></polygon><polygon points="369.8 308.24 118.95 308.24 99.95 260.4 369.8 260.4 369.8 308.24" style="fill:#e0e0e0"></polygon><polygon points="208.41 303.4 117.13 303.4 104.85 272.46 208.41 272.46 208.41 303.4" style="fill:#fafafa"></polygon><rect x="136.31" y="271.12" width="0.5" height="33.71" style="fill:#e0e0e0"></rect><rect x="119.4" y="271.12" width="0.5" height="33.71" style="fill:#e0e0e0"></rect><rect x="111.29" y="287.72" width="85.48" height="0.5" style="fill:#e0e0e0"></rect><rect x="153.18" y="271.12" width="0.5" height="33.71" style="fill:#e0e0e0"></rect><rect x="170.04" y="271.12" width="0.5" height="33.71" style="fill:#e0e0e0"></rect><rect x="185.95" y="271.12" width="0.5" height="33.71" style="fill:#e0e0e0"></rect><polygon points="384.72 308.24 635.57 308.24 654.58 260.4 384.72 260.4 384.72 308.24" style="fill:#e0e0e0"></polygon><polygon points="546.12 303.4 637.39 303.4 649.68 272.46 546.12 272.46 546.12 303.4" style="fill:#fafafa"></polygon><rect x="617.72" y="271.12" width="0.5" height="33.71" style="fill:#e0e0e0"></rect><rect x="634.62" y="271.12" width="0.5" height="33.71" style="fill:#e0e0e0"></rect><rect x="557.75" y="287.72" width="85.48" height="0.5" style="fill:#e0e0e0"></rect><rect x="600.85" y="271.12" width="0.5" height="33.71" style="fill:#e0e0e0"></rect><rect x="583.98" y="271.12" width="0.5" height="33.71" style="fill:#e0e0e0"></rect><rect x="568.08" y="271.12" width="0.5" height="33.71" style="fill:#e0e0e0"></rect><path d="M614.86,158.32a6.86,6.86,0,0,0-7.44-.43c-3-6.1-11.43-8.8-17.43-5.58a15,15,0,0,0-29.32.35,5.76,5.76,0,0,1-1.12,3c-1.22,1.25-3.26.83-5,.69a12.37,12.37,0,0,0-12.47,8.7l75.35-.28C618.1,162.19,617,159.91,614.86,158.32Z" style="fill:#f0f0f0"></path><path d="M373.49,184.16a6.88,6.88,0,0,0-7.44-.44c-3-6.1-11.43-8.79-17.43-5.58a15,15,0,0,0-29.32.36,5.69,5.69,0,0,1-1.12,3c-1.22,1.25-3.26.83-5,.7a12.36,12.36,0,0,0-12.46,8.69l75.35-.27C376.73,188,375.59,185.75,373.49,184.16Z" style="fill:#f0f0f0"></path><path d="M629.64,87a4.37,4.37,0,0,0-4.72-.28,8.4,8.4,0,0,0-11-3.53,9.53,9.53,0,0,0-18.59.22,3.57,3.57,0,0,1-.71,1.88c-.77.79-2.07.53-3.17.44a7.84,7.84,0,0,0-7.9,5.52l47.78-.18A3.84,3.84,0,0,0,629.64,87Z" style="fill:#f0f0f0"></path><path d="M494.68,108a6.5,6.5,0,0,0-7-.42c-2.86-5.76-10.81-8.31-16.48-5.27a14.21,14.21,0,0,0-27.72.33,5.44,5.44,0,0,1-1.06,2.81c-1.16,1.18-3.09.78-4.73.65a11.71,11.71,0,0,0-11.79,8.23l71.26-.26A5.68,5.68,0,0,0,494.68,108Z" style="fill:#e6e6e6"></path><path d="M149.19,106.29a4.21,4.21,0,0,0-4.56-.26A8.11,8.11,0,0,0,134,102.61a9.2,9.2,0,0,0-18,.22,3.54,3.54,0,0,1-.69,1.81c-.74.77-2,.51-3.06.43a7.57,7.57,0,0,0-7.63,5.32l46.14-.17A3.7,3.7,0,0,0,149.19,106.29Z" style="fill:#e6e6e6"></path><path d="M223.8,222.65a3.18,3.18,0,0,0-3.44-.2,6.11,6.11,0,0,0-8-2.58,6.94,6.94,0,0,0-13.53.17,2.83,2.83,0,0,1-.52,1.37c-.57.57-1.51.38-2.31.32a5.69,5.69,0,0,0-5.75,4l34.78-.13A2.78,2.78,0,0,0,223.8,222.65Z" style="fill:#e6e6e6"></path><path d="M653.7,228.25a3.14,3.14,0,0,0-3.43-.2,6.12,6.12,0,0,0-8-2.58,6.94,6.94,0,0,0-13.53.16,2.58,2.58,0,0,1-.52,1.37c-.56.58-1.5.39-2.3.32a5.73,5.73,0,0,0-5.76,4l34.78-.13A2.76,2.76,0,0,0,653.7,228.25Z" style="fill:#e6e6e6"></path><path d="M462.68,199.62a3.18,3.18,0,0,0-3.44-.21,6.11,6.11,0,0,0-8-2.57,6.94,6.94,0,0,0-13.53.16,2.66,2.66,0,0,1-.52,1.37c-.56.58-1.5.38-2.31.32a5.71,5.71,0,0,0-5.75,4l34.78-.13A2.77,2.77,0,0,0,462.68,199.62Z" style="fill:#e6e6e6"></path><path d="M299.61,86.3a3.5,3.5,0,0,0-3.77-.22A6.74,6.74,0,0,0,287,83.25a7.62,7.62,0,0,0-14.87.18,3,3,0,0,1-.57,1.51c-.62.63-1.66.42-2.54.35a6.26,6.26,0,0,0-6.32,4.41l38.23-.14A3,3,0,0,0,299.61,86.3Z" style="fill:#f0f0f0"></path><path d="M673.73,306.15H493a5.87,5.87,0,0,1-5.86-5.86V37A5.87,5.87,0,0,1,493,31.16H673.73A5.87,5.87,0,0,1,679.6,37V300.29A5.87,5.87,0,0,1,673.73,306.15ZM493,31.41A5.61,5.61,0,0,0,487.38,37V300.29A5.61,5.61,0,0,0,493,305.9H673.73a5.62,5.62,0,0,0,5.62-5.61V37a5.62,5.62,0,0,0-5.62-5.61Z" style="fill:#e0e0e0"></path><path d="M465.31,306.15H284.56a5.87,5.87,0,0,1-5.86-5.86V37a5.87,5.87,0,0,1,5.86-5.86H465.31A5.87,5.87,0,0,1,471.17,37V300.29A5.87,5.87,0,0,1,465.31,306.15ZM284.56,31.41A5.61,5.61,0,0,0,279,37V300.29a5.61,5.61,0,0,0,5.61,5.61H465.31a5.61,5.61,0,0,0,5.61-5.61V37a5.61,5.61,0,0,0-5.61-5.61Z" style="fill:#e0e0e0"></path><path d="M257,306.15H76.27a5.87,5.87,0,0,1-5.87-5.86V37a5.87,5.87,0,0,1,5.87-5.86H257A5.87,5.87,0,0,1,262.87,37V300.29A5.87,5.87,0,0,1,257,306.15ZM76.27,31.41A5.62,5.62,0,0,0,70.65,37V300.29a5.62,5.62,0,0,0,5.62,5.61H257a5.61,5.61,0,0,0,5.61-5.61V37A5.61,5.61,0,0,0,257,31.41Z" style="fill:#e0e0e0"></path><rect y="367.22" width="750" height="0.12" style="fill:#e0e0e0"></rect><rect x="653.63" y="396.6" width="55.73" height="0.42" style="fill:#ebebeb"></rect><rect x="495.04" y="401.17" width="14.63" height="0.42" style="fill:#ebebeb"></rect><rect x="40.64" y="383.8" width="72.67" height="0.42" style="fill:#ebebeb"></rect><rect x="128.3" y="383.8" width="10.66" height="0.42" style="fill:#ebebeb"></rect><rect x="173.59" y="390.91" width="157.61" height="0.42" style="fill:#ebebeb"></rect><path d="M272.05,150.26s5.29-1.27,8.35-4.19a4.78,4.78,0,0,0-1-7.58,35.07,35.07,0,0,0-18.92-4.35c-14,.57-94.32,19-94.32,19L130.07,162l2.07,5s57.75-1.69,74.62-3.16S272.05,150.26,272.05,150.26Z" style="fill:#ebebeb"></path><path d="M156.19,155.6l-24-15.46A13.7,13.7,0,0,0,122,138.23l-6.3,1.29,14.46,22.74Z" style="fill:#e0e0e0"></path><path d="M144.7,163.89,132.13,167,117,165.74a13.56,13.56,0,0,1,8.19-2.2C126,163.56,143.66,163.91,144.7,163.89Z" style="fill:#e0e0e0"></path><path d="M278.16,137.8l-11.75,2.43a.73.73,0,0,1-.7-.21l-.91-.94a.76.76,0,0,1,.39-1.27l8.75-1.78a29,29,0,0,1,4.22,1.77Z" style="fill:#fff;opacity:0.6000000000000001"></path><path d="M261.73,140.67a.34.34,0,0,1-.17.57L161.49,162a1.33,1.33,0,0,1-1.21-.37h0a1.32,1.32,0,0,1,.68-2.2l98.76-20.48a.49.49,0,0,1,.44.14Z" style="fill:#fff;opacity:0.6000000000000001"></path><path d="M233.83,155.63s-1.23,1.56-13,4.42-24.4,3.23-32,3.4-25.42-.13-26.79-1.25,27.56-8.53,50.24-8.58C232.69,153.57,234.41,153.46,233.83,155.63Z" style="fill:#e0e0e0"></path><path d="M205.72,157.8l1.86,9s-8.94,2.42-12.66.43c-2.54-1.36-2.42-5,1.54-6.78A30.18,30.18,0,0,1,205.72,157.8Z" style="fill:#e6e6e6"></path><path d="M224.11,154.21l1.86,9s-8.94,2.41-12.66.43c-2.55-1.36-2.42-5,1.54-6.78A29.77,29.77,0,0,1,224.11,154.21Z" style="fill:#e6e6e6"></path><path d="M222.87,154.36l1.89,9.1-1.15.24-1.85-9.13Q222.36,154.44,222.87,154.36Z" style="fill:#fff"></path><path d="M204.36,158l1.89,9.09-1.15.24-1.85-9.13C203.64,158.09,204,158,204.36,158Z" style="fill:#fff"></path><circle cx="132.35" cy="150.32" r="4.6" transform="translate(-67.21 133.34) rotate(-43.77)" style="fill:#ebebeb"></circle></g><g id="freepik--Shadow--inject-334"><path d="M583.88,460.5c0,3.38-93.52,6.13-208.88,6.13s-208.88-2.75-208.88-6.13,93.52-6.14,208.88-6.14S583.88,457.11,583.88,460.5Z" style="fill:#f5f5f5"></path></g><g id="freepik--Lines--inject-334"><path d="M64.1,401.1h-6a.25.25,0,0,1,0-.5h6a.25.25,0,1,1,0,.5Z" style="fill:#263238"></path><path d="M681.08,401.1H669.22a.25.25,0,0,1,0-.5h11.86a.25.25,0,0,1,0,.5Zm-23.73,0H645.49a.25.25,0,0,1,0-.5h11.86a.25.25,0,0,1,0,.5Zm-23.73,0H621.76a.25.25,0,0,1,0-.5h11.86a.25.25,0,0,1,0,.5Zm-23.73,0H598a.25.25,0,0,1,0-.5h11.86a.25.25,0,0,1,0,.5Zm-23.73,0H574.3a.25.25,0,0,1,0-.5h11.86a.25.25,0,0,1,0,.5Zm-23.73,0H550.57a.25.25,0,0,1,0-.5h11.86a.25.25,0,0,1,0,.5Zm-23.73,0H526.84a.25.25,0,0,1,0-.5H538.7a.25.25,0,0,1,0,.5Zm-23.73,0H503.11a.25.25,0,0,1,0-.5H515a.25.25,0,0,1,0,.5Zm-23.73,0H479.38a.25.25,0,1,1,0-.5h11.86a.25.25,0,0,1,0,.5Zm-23.73,0H455.64a.25.25,0,0,1,0-.5h11.87a.25.25,0,0,1,0,.5Zm-23.73,0H431.91a.25.25,0,1,1,0-.5h11.87a.25.25,0,0,1,0,.5Zm-23.73,0H408.18a.25.25,0,1,1,0-.5h11.87a.25.25,0,1,1,0,.5Zm-23.73,0H384.45a.25.25,0,1,1,0-.5h11.87a.25.25,0,1,1,0,.5Zm-23.73,0H360.72a.25.25,0,0,1,0-.5h11.87a.25.25,0,1,1,0,.5Zm-23.73,0H337a.25.25,0,0,1,0-.5h11.87a.25.25,0,0,1,0,.5Zm-23.73,0H313.26a.25.25,0,0,1,0-.5h11.87a.25.25,0,0,1,0,.5Zm-23.73,0H289.53a.25.25,0,0,1,0-.5H301.4a.25.25,0,0,1,0,.5Zm-23.73,0H265.8a.25.25,0,0,1,0-.5h11.87a.25.25,0,0,1,0,.5Zm-23.73,0H242.07a.25.25,0,0,1,0-.5h11.87a.25.25,0,0,1,0,.5Zm-23.73,0H218.34a.25.25,0,0,1,0-.5h11.87a.25.25,0,1,1,0,.5Zm-23.73,0H194.61a.25.25,0,0,1,0-.5h11.87a.25.25,0,1,1,0,.5Zm-23.73,0H170.88a.25.25,0,0,1,0-.5h11.87a.25.25,0,0,1,0,.5Zm-23.73,0H147.15a.25.25,0,1,1,0-.5H159a.25.25,0,0,1,0,.5Zm-23.73,0H123.42a.25.25,0,1,1,0-.5h11.87a.25.25,0,0,1,0,.5Zm-23.73,0H99.69a.25.25,0,0,1,0-.5h11.87a.25.25,0,1,1,0,.5Zm-23.73,0H76a.25.25,0,1,1,0-.5H87.83a.25.25,0,0,1,0,.5Z" style="fill:#263238"></path><path d="M699,401.1h-6a.25.25,0,0,1,0-.5h6a.25.25,0,0,1,0,.5Z" style="fill:#263238"></path><path d="M64.1,480.41h-6a.25.25,0,0,1-.25-.25.25.25,0,0,1,.25-.25h6a.26.26,0,0,1,.25.25A.25.25,0,0,1,64.1,480.41Z" style="fill:#263238"></path><path d="M681.08,480.41H669.22a.25.25,0,0,1-.25-.25.25.25,0,0,1,.25-.25h11.86a.25.25,0,0,1,.25.25A.25.25,0,0,1,681.08,480.41Zm-23.73,0H645.49a.25.25,0,0,1-.25-.25.25.25,0,0,1,.25-.25h11.86a.25.25,0,0,1,.25.25A.25.25,0,0,1,657.35,480.41Zm-23.73,0H621.76a.25.25,0,0,1-.25-.25.25.25,0,0,1,.25-.25h11.86a.25.25,0,0,1,.25.25A.25.25,0,0,1,633.62,480.41Zm-23.73,0H598a.25.25,0,0,1-.25-.25.25.25,0,0,1,.25-.25h11.86a.25.25,0,0,1,.25.25A.25.25,0,0,1,609.89,480.41Zm-23.73,0H574.3a.25.25,0,0,1-.25-.25.25.25,0,0,1,.25-.25h11.86a.25.25,0,0,1,.25.25A.25.25,0,0,1,586.16,480.41Zm-23.73,0H550.57a.25.25,0,0,1-.25-.25.25.25,0,0,1,.25-.25h11.86a.25.25,0,0,1,.25.25A.25.25,0,0,1,562.43,480.41Zm-23.73,0H526.84a.25.25,0,0,1-.25-.25.25.25,0,0,1,.25-.25H538.7a.25.25,0,0,1,.25.25A.25.25,0,0,1,538.7,480.41Zm-23.73,0H503.11a.25.25,0,0,1-.25-.25.25.25,0,0,1,.25-.25H515a.25.25,0,0,1,.25.25A.25.25,0,0,1,515,480.41Zm-23.73,0H479.38a.26.26,0,0,1-.26-.25.26.26,0,0,1,.26-.25h11.86a.25.25,0,0,1,.25.25A.25.25,0,0,1,491.24,480.41Zm-23.73,0H455.64a.25.25,0,0,1-.25-.25.26.26,0,0,1,.25-.25h11.87a.25.25,0,0,1,.25.25A.25.25,0,0,1,467.51,480.41Zm-23.73,0H431.91a.25.25,0,0,1-.25-.25.26.26,0,0,1,.25-.25h11.87a.25.25,0,0,1,.25.25A.25.25,0,0,1,443.78,480.41Zm-23.73,0H408.18a.25.25,0,0,1-.25-.25.26.26,0,0,1,.25-.25h11.87a.25.25,0,0,1,.25.25A.25.25,0,0,1,420.05,480.41Zm-23.73,0H384.45a.25.25,0,0,1-.25-.25.26.26,0,0,1,.25-.25h11.87a.25.25,0,0,1,.25.25A.25.25,0,0,1,396.32,480.41Zm-23.73,0H360.72a.25.25,0,0,1-.25-.25.26.26,0,0,1,.25-.25h11.87a.25.25,0,0,1,.25.25A.25.25,0,0,1,372.59,480.41Zm-23.73,0H337a.25.25,0,0,1-.25-.25.25.25,0,0,1,.25-.25h11.87a.25.25,0,0,1,.25.25A.25.25,0,0,1,348.86,480.41Zm-23.73,0H313.26a.25.25,0,0,1-.25-.25.26.26,0,0,1,.25-.25h11.87a.25.25,0,0,1,.25.25A.25.25,0,0,1,325.13,480.41Zm-23.73,0H289.53a.25.25,0,0,1-.25-.25.26.26,0,0,1,.25-.25H301.4a.25.25,0,0,1,.25.25A.25.25,0,0,1,301.4,480.41Zm-23.73,0H265.8a.25.25,0,0,1-.25-.25.25.25,0,0,1,.25-.25h11.87a.25.25,0,0,1,.25.25A.25.25,0,0,1,277.67,480.41Zm-23.73,0H242.07a.25.25,0,0,1-.25-.25.25.25,0,0,1,.25-.25h11.87a.25.25,0,0,1,.25.25A.25.25,0,0,1,253.94,480.41Zm-23.73,0H218.34a.25.25,0,0,1-.25-.25.25.25,0,0,1,.25-.25h11.87a.25.25,0,0,1,.25.25A.25.25,0,0,1,230.21,480.41Zm-23.73,0H194.61a.25.25,0,0,1-.25-.25.25.25,0,0,1,.25-.25h11.87a.25.25,0,0,1,.25.25A.25.25,0,0,1,206.48,480.41Zm-23.73,0H170.88a.25.25,0,0,1-.25-.25.25.25,0,0,1,.25-.25h11.87a.25.25,0,0,1,.25.25A.25.25,0,0,1,182.75,480.41Zm-23.73,0H147.15a.25.25,0,0,1-.25-.25.25.25,0,0,1,.25-.25H159a.26.26,0,0,1,.25.25A.25.25,0,0,1,159,480.41Zm-23.73,0H123.42a.25.25,0,0,1-.25-.25.25.25,0,0,1,.25-.25h11.87a.26.26,0,0,1,.25.25A.25.25,0,0,1,135.29,480.41Zm-23.73,0H99.69a.25.25,0,0,1-.25-.25.25.25,0,0,1,.25-.25h11.87a.26.26,0,0,1,.25.25A.25.25,0,0,1,111.56,480.41Zm-23.73,0H76a.25.25,0,0,1-.25-.25.25.25,0,0,1,.25-.25H87.83a.26.26,0,0,1,.25.25A.25.25,0,0,1,87.83,480.41Z" style="fill:#263238"></path><path d="M699,480.41h-6a.25.25,0,0,1-.25-.25.25.25,0,0,1,.25-.25h6a.25.25,0,0,1,.25.25A.25.25,0,0,1,699,480.41Z" style="fill:#263238"></path></g><g id="freepik--Building--inject-334"><polygon points="415.02 241.28 334.98 241.28 175.26 241.28 201.63 308.27 341.34 308.27 408.66 308.27 548.37 308.27 574.74 241.28 415.02 241.28" style="fill:#407BFF"></polygon><path d="M358.86,72V54a.38.38,0,0,0-.75,0V72a.38.38,0,0,0,.75,0Z" style="fill:#263238"></path><path d="M358.86,72V54a.38.38,0,0,0-.75,0V72a.38.38,0,0,0,.75,0Z" style="fill:#fff;opacity:0.30000000000000004"></path><rect x="370.17" y="30.78" width="3.11" height="41.21" style="fill:#407BFF"></rect><path d="M364.49,52.28V34.21a.38.38,0,0,0-.75,0V52.28a.38.38,0,0,0,.75,0Z" style="fill:#263238"></path><path d="M364.49,52.28V34.21a.38.38,0,0,0-.75,0V52.28a.38.38,0,0,0,.75,0Z" style="fill:#fff;opacity:0.30000000000000004"></path><rect x="379.97" y="63.16" width="3.62" height="9.71" style="fill:#263238"></rect><polygon points="352.03 102.97 342.69 79.16 402.99 79.16 393.89 102.97 352.03 102.97" style="fill:#407BFF"></polygon><polygon points="342.69 79.16 353.44 71.98 392.68 71.98 402.99 79.16 342.69 79.16" style="fill:#407BFF"></polygon><rect x="353.9" y="101.95" width="37.63" height="200.26" style="fill:#407BFF"></rect><polygon points="330.27 302.59 199.39 302.59 178.63 249.64 330.27 249.64 330.27 302.59" style="fill:#fff;opacity:0.6000000000000001"></polygon><polygon points="222.95 302.72 251.7 249.64 288.42 249.64 258.12 302.72 222.95 302.72" style="fill:#fff;opacity:0.6000000000000001"></polygon><polygon points="269.43 302.72 300.32 249.64 313.75 249.64 281.31 302.72 269.43 302.72" style="fill:#fff;opacity:0.6000000000000001"></polygon><path d="M382.11,63.48V45.4a.38.38,0,0,0-.75,0V63.48a.38.38,0,0,0,.75,0Z" style="fill:#263238"></path><rect x="362.35" y="51.96" width="3.62" height="20.02" style="fill:#263238"></rect><g style="clip-path:url(#freepik--clip-path--inject-334)"><polygon points="373.28 34.21 370.17 38.73 370.17 46.01 373.28 41.28 373.28 34.21" style="fill:#fff;opacity:0.30000000000000004"></polygon><polygon points="373.28 48.94 370.17 53.46 370.17 60.74 373.28 56.01 373.28 48.94" style="fill:#fff;opacity:0.30000000000000004"></polygon><polygon points="373.28 63.66 370.17 68.19 370.17 75.47 373.28 70.74 373.28 63.66" style="fill:#fff;opacity:0.30000000000000004"></polygon></g><rect x="362.35" y="51.96" width="3.62" height="20.02" style="fill:#fff;opacity:0.30000000000000004"></rect><polygon points="344.42 83.55 350.34 98.65 395.54 98.65 401.32 83.55 344.42 83.55" style="fill:#fff;opacity:0.6000000000000001"></polygon><polygon points="342.69 79.16 353.44 71.98 392.68 71.98 402.99 79.16 342.69 79.16" style="fill:#fff;opacity:0.30000000000000004"></polygon><rect x="352.46" y="83.55" width="0.25" height="15.11" style="fill:#407BFF"></rect><rect x="348.4" y="94.38" width="48.73" height="0.25" style="fill:#407BFF"></rect><rect x="346.01" y="87.85" width="53.62" height="0.25" style="fill:#407BFF"></rect><rect x="360.92" y="83.55" width="0.25" height="15.11" style="fill:#407BFF"></rect><rect x="369.39" y="83.55" width="0.25" height="15.11" style="fill:#407BFF"></rect><rect x="377.85" y="83.55" width="0.25" height="15.11" style="fill:#407BFF"></rect><rect x="386.32" y="83.55" width="0.25" height="15.11" style="fill:#407BFF"></rect><rect x="394.78" y="83.55" width="0.25" height="15.11" style="fill:#407BFF"></rect><polygon points="345.14 85.42 400.61 85.42 401.32 83.55 344.42 83.55 345.14 85.42" style="opacity:0.30000000000000004"></polygon><polygon points="350.34 98.65 362.35 83.55 369.51 83.55 357.19 98.65 350.34 98.65" style="fill:#fff;opacity:0.6000000000000001"></polygon><polygon points="359.4 98.65 371.41 83.55 374.03 83.55 361.71 98.65 359.4 98.65" style="fill:#fff;opacity:0.6000000000000001"></polygon><polygon points="364.27 192.21 371.58 178.73 380.9 178.73 373.21 192.21 364.27 192.21" style="fill:#fff;opacity:0.6000000000000001"></polygon><polygon points="376.08 192.21 383.93 178.73 387.34 178.73 379.1 192.21 376.08 192.21" style="fill:#fff;opacity:0.6000000000000001"></polygon><rect x="360.95" y="178.73" width="30.59" height="13.45" style="fill:#fff;opacity:0.6000000000000001"></rect><rect x="366.67" y="178.14" width="0.25" height="14.65" style="fill:#407BFF"></rect><rect x="360.94" y="185.34" width="30.59" height="0.25" style="fill:#407BFF"></rect><rect x="374.01" y="178.14" width="0.25" height="14.65" style="fill:#407BFF"></rect><rect x="381.34" y="178.14" width="0.25" height="14.65" style="fill:#407BFF"></rect><rect x="388.25" y="178.14" width="0.25" height="14.65" style="fill:#407BFF"></rect><polyline points="360.94 178.73 360.94 180.37 391.53 180.37 391.53 178.73 361.18 178.73" style="opacity:0.30000000000000004"></polyline><polygon points="364.27 171.64 371.58 158.16 380.9 158.16 373.21 171.64 364.27 171.64" style="fill:#fff;opacity:0.6000000000000001"></polygon><polygon points="376.08 171.64 383.93 158.16 387.34 158.16 379.1 171.64 376.08 171.64" style="fill:#fff;opacity:0.6000000000000001"></polygon><rect x="360.95" y="158.16" width="30.59" height="13.45" style="fill:#fff;opacity:0.6000000000000001"></rect><rect x="366.67" y="157.57" width="0.25" height="14.65" style="fill:#407BFF"></rect><rect x="360.94" y="164.77" width="30.59" height="0.25" style="fill:#407BFF"></rect><rect x="374.01" y="157.57" width="0.25" height="14.65" style="fill:#407BFF"></rect><rect x="381.34" y="157.57" width="0.25" height="14.65" style="fill:#407BFF"></rect><rect x="388.25" y="157.57" width="0.25" height="14.65" style="fill:#407BFF"></rect><polyline points="360.94 158.16 360.94 159.8 391.53 159.8 391.53 158.16 361.18 158.16" style="opacity:0.30000000000000004"></polyline><polygon points="364.27 151.07 371.58 137.59 380.9 137.59 373.21 151.07 364.27 151.07" style="fill:#fff;opacity:0.6000000000000001"></polygon><polygon points="376.08 151.07 383.93 137.59 387.34 137.59 379.1 151.07 376.08 151.07" style="fill:#fff;opacity:0.6000000000000001"></polygon><rect x="360.95" y="137.59" width="30.59" height="13.45" style="fill:#fff;opacity:0.6000000000000001"></rect><rect x="366.67" y="137" width="0.25" height="14.65" style="fill:#407BFF"></rect><rect x="360.94" y="144.21" width="30.59" height="0.25" style="fill:#407BFF"></rect><rect x="374.01" y="137" width="0.25" height="14.65" style="fill:#407BFF"></rect><rect x="381.34" y="137" width="0.25" height="14.65" style="fill:#407BFF"></rect><rect x="388.25" y="137" width="0.25" height="14.65" style="fill:#407BFF"></rect><polyline points="360.94 137.59 360.94 139.24 391.53 139.24 391.53 137.59 361.18 137.59" style="opacity:0.30000000000000004"></polyline><polygon points="364.27 130.5 371.58 117.02 380.9 117.02 373.21 130.5 364.27 130.5" style="fill:#fff;opacity:0.6000000000000001"></polygon><polygon points="376.08 130.5 383.93 117.02 387.34 117.02 379.1 130.5 376.08 130.5" style="fill:#fff;opacity:0.6000000000000001"></polygon><rect x="360.95" y="117.02" width="30.59" height="13.45" style="fill:#fff;opacity:0.6000000000000001"></rect><rect x="366.67" y="116.44" width="0.25" height="14.65" style="fill:#407BFF"></rect><rect x="360.94" y="123.64" width="30.59" height="0.25" style="fill:#407BFF"></rect><rect x="374.01" y="116.44" width="0.25" height="14.65" style="fill:#407BFF"></rect><rect x="381.34" y="116.44" width="0.25" height="14.65" style="fill:#407BFF"></rect><rect x="388.25" y="116.44" width="0.25" height="14.65" style="fill:#407BFF"></rect><polyline points="360.94 117.02 360.94 118.67 391.53 118.67 391.53 117.02 361.18 117.02" style="opacity:0.30000000000000004"></polyline><polygon points="364.27 214.08 371.58 200.59 380.9 200.59 373.21 214.08 364.27 214.08" style="fill:#fff;opacity:0.6000000000000001"></polygon><polygon points="376.08 214.08 383.93 200.59 387.34 200.59 379.1 214.08 376.08 214.08" style="fill:#fff;opacity:0.6000000000000001"></polygon><rect x="360.95" y="200.59" width="30.59" height="13.45" style="fill:#fff;opacity:0.6000000000000001"></rect><rect x="366.67" y="200.01" width="0.25" height="14.65" style="fill:#407BFF"></rect><rect x="360.94" y="207.21" width="30.59" height="0.25" style="fill:#407BFF"></rect><rect x="374.01" y="200.01" width="0.25" height="14.65" style="fill:#407BFF"></rect><rect x="381.34" y="200.01" width="0.25" height="14.65" style="fill:#407BFF"></rect><rect x="388.25" y="200.01" width="0.25" height="14.65" style="fill:#407BFF"></rect><polyline points="360.94 200.59 360.94 202.24 391.53 202.24 391.53 200.59 361.18 200.59" style="opacity:0.30000000000000004"></polyline><polygon points="364.27 236.36 371.58 222.88 380.9 222.88 373.21 236.36 364.27 236.36" style="fill:#fff;opacity:0.6000000000000001"></polygon><polygon points="376.08 236.36 383.93 222.88 387.34 222.88 379.1 236.36 376.08 236.36" style="fill:#fff;opacity:0.6000000000000001"></polygon><rect x="360.95" y="222.88" width="30.59" height="13.45" style="fill:#fff;opacity:0.6000000000000001"></rect><rect x="366.67" y="222.29" width="0.25" height="14.65" style="fill:#407BFF"></rect><rect x="360.94" y="229.5" width="30.59" height="0.25" style="fill:#407BFF"></rect><rect x="374.01" y="222.29" width="0.25" height="14.65" style="fill:#407BFF"></rect><rect x="381.34" y="222.29" width="0.25" height="14.65" style="fill:#407BFF"></rect><rect x="388.25" y="222.29" width="0.25" height="14.65" style="fill:#407BFF"></rect><polyline points="360.94 222.88 360.94 224.53 391.53 224.53 391.53 222.88 361.18 222.88" style="opacity:0.30000000000000004"></polyline><rect x="232.65" y="247.34" width="0.5" height="57.68" style="fill:#407BFF"></rect><rect x="203.72" y="247.34" width="0.5" height="57.68" style="fill:#407BFF"></rect><rect x="189.66" y="275.93" width="140.62" height="0.5" style="fill:#407BFF"></rect><rect x="261.51" y="247.34" width="0.5" height="57.68" style="fill:#407BFF"></rect><rect x="290.37" y="247.34" width="0.5" height="57.68" style="fill:#407BFF"></rect><rect x="317.59" y="247.34" width="0.5" height="57.68" style="fill:#407BFF"></rect><polygon points="178.63 249.64 330.27 249.64 330.27 251.59 179.32 251.59 178.63 249.64" style="opacity:0.30000000000000004"></polygon><polygon points="419.73 302.59 550.61 302.59 571.37 249.64 419.73 249.64 419.73 302.59" style="fill:#fff;opacity:0.6000000000000001"></polygon><polygon points="527.05 302.72 498.3 249.64 461.58 249.64 491.88 302.72 527.05 302.72" style="fill:#fff;opacity:0.6000000000000001"></polygon><polygon points="480.57 302.72 449.68 249.64 436.25 249.64 468.69 302.72 480.57 302.72" style="fill:#fff;opacity:0.6000000000000001"></polygon><rect x="516.85" y="247.34" width="0.5" height="57.68" style="fill:#407BFF"></rect><rect x="545.78" y="247.34" width="0.5" height="57.68" style="fill:#407BFF"></rect><rect x="419.73" y="275.93" width="140.62" height="0.5" style="fill:#407BFF"></rect><rect x="487.99" y="247.34" width="0.5" height="57.68" style="fill:#407BFF"></rect><rect x="459.13" y="247.34" width="0.5" height="57.68" style="fill:#407BFF"></rect><rect x="431.92" y="247.34" width="0.5" height="57.68" style="fill:#407BFF"></rect><polygon points="571.37 249.64 419.73 249.64 419.73 251.59 570.68 251.59 571.37 249.64" style="opacity:0.30000000000000004"></polygon><rect x="353.9" y="102.97" width="37.63" height="3.88" style="opacity:0.30000000000000004"></rect><rect x="353.3" y="289.3" width="43.4" height="18.96" style="opacity:0.30000000000000004"></rect><rect x="357.66" y="294.15" width="34.68" height="14.11" style="fill:#263238"></rect><rect x="359.74" y="295.74" width="4.95" height="12.52" style="fill:#407BFF"></rect><rect x="366.27" y="295.74" width="4.95" height="12.52" style="fill:#407BFF"></rect><rect x="372.79" y="295.74" width="4.95" height="12.52" style="fill:#407BFF"></rect><rect x="379.32" y="295.74" width="4.95" height="12.52" style="fill:#407BFF"></rect><rect x="385.84" y="295.74" width="4.95" height="12.52" style="fill:#407BFF"></rect><path d="M359.74,296.84s31.06.11,31.06,0v-1.1H359.74Z" style="opacity:0.30000000000000004"></path><polygon points="359.74 308.26 364.7 303.96 364.7 308.26 359.74 308.26" style="fill:#fff;opacity:0.30000000000000004"></polygon><polygon points="366.27 302.71 371.22 298.33 371.22 308.26 366.27 308.26 366.27 302.71" style="fill:#fff;opacity:0.30000000000000004"></polygon><polygon points="372.75 303.12 377.7 298.74 377.7 308.26 372.75 308.26 372.75 303.12" style="fill:#fff;opacity:0.30000000000000004"></polygon><rect x="347.1" y="266.03" width="55.18" height="6.17" style="opacity:0.30000000000000004"></rect></g><g id="freepik--airplane-3--inject-334"><polygon points="687.79 373.12 684.31 369.1 684.31 366.14 681.86 366.31 681.8 369.51 686.2 374.63 687.79 373.12" style="fill:#263238"></polygon><path d="M683.62,373.15a3,3,0,1,0,3-3A3,3,0,0,0,683.62,373.15Z" style="fill:#263238"></path><path d="M685.11,373.15a1.56,1.56,0,1,0,1.55-1.56A1.55,1.55,0,0,0,685.11,373.15Z" style="fill:#fff;opacity:0.30000000000000004"></path><polygon points="593.71 375.12 590.23 371.1 590.13 366.14 587.69 366.31 587.72 371.51 592.11 376.63 593.71 375.12" style="fill:#263238"></polygon><path d="M589.54,375.15a3,3,0,1,0,3-3A3,3,0,0,0,589.54,375.15Z" style="fill:#263238"></path><path d="M591,375.15a1.56,1.56,0,1,0,1.55-1.56A1.55,1.55,0,0,0,591,375.15Z" style="fill:#fff;opacity:0.30000000000000004"></path><polygon points="588.12 370.37 590.19 371.51 585.8 376.63 584.2 375.12 588.12 370.37" style="fill:#263238"></polygon><circle cx="585.33" cy="375.15" r="3.05" style="fill:#263238"></circle><circle cx="585.33" cy="375.15" r="1.56" style="fill:#fff;opacity:0.30000000000000004"></circle><path d="M699.38,366.44s9.4-.31,15.62-4.18a8.29,8.29,0,0,0,1-13.2c-5.22-4.62-15.24-11.49-30.55-14-23.92-3.93-166.62-.82-166.62-.82l-64.34,2.24,1.75,9.22s98.53,17.38,127.64,20.81S699.38,366.44,699.38,366.44Z" style="fill:#263238"></path><path d="M699.38,366.44s9.4-.31,15.62-4.18a8.29,8.29,0,0,0,1-13.2c-5.22-4.62-15.24-11.49-30.55-14-23.92-3.93-166.62-.82-166.62-.82l-64.34,2.24,1.75,9.22s98.53,17.38,127.64,20.81S699.38,366.44,699.38,366.44Z" style="fill:#fff;opacity:0.30000000000000004"></path><path d="M501,334.85l-35.27-34.63a23.72,23.72,0,0,0-16.55-6.79l-11.12,0,16.43,43.07Z" style="fill:#263238"></path><path d="M478.34,344.64l-22.39.8-25.3-7.38s6-2.91,14.66-.87C446.73,337.52,476.57,344.31,478.34,344.64Z" style="fill:#263238"></path><path d="M714.1,347.44H693.32a1.29,1.29,0,0,1-1.11-.61L691,344.93a1.31,1.31,0,0,1,1.11-2l15.46,0a51.83,51.83,0,0,1,6.53,4.48Z" style="fill:#407BFF"></path><rect x="674.52" y="342.92" width="3.29" height="5.18" rx="0.79" transform="translate(1352.34 691.02) rotate(180)" style="fill:#407BFF"></rect><rect x="668.61" y="342.92" width="3.29" height="5.18" rx="0.79" transform="translate(1340.52 691.02) rotate(180)" style="fill:#407BFF"></rect><rect x="662.7" y="342.92" width="3.29" height="5.18" rx="0.79" transform="translate(1328.7 691.02) rotate(180)" style="fill:#407BFF"></rect><rect x="656.79" y="342.92" width="3.29" height="5.18" rx="0.79" transform="translate(1316.88 691.02) rotate(180)" style="fill:#407BFF"></rect><rect x="650.88" y="342.92" width="3.29" height="5.18" rx="0.79" transform="translate(1305.06 691.02) rotate(180)" style="fill:#407BFF"></rect><rect x="644.97" y="342.92" width="3.29" height="5.18" rx="0.79" transform="translate(1293.24 691.02) rotate(180)" style="fill:#407BFF"></rect><rect x="639.06" y="342.92" width="3.29" height="5.18" rx="0.79" transform="translate(1281.42 691.02) rotate(180)" style="fill:#407BFF"></rect><rect x="633.15" y="342.92" width="3.29" height="5.18" rx="0.79" transform="translate(1269.6 691.02) rotate(180)" style="fill:#407BFF"></rect><rect x="627.24" y="342.92" width="3.29" height="5.18" rx="0.79" transform="translate(1257.78 691.02) rotate(180)" style="fill:#407BFF"></rect><rect x="621.33" y="342.92" width="3.29" height="5.18" rx="0.79" transform="translate(1245.95 691.02) rotate(180)" style="fill:#407BFF"></rect><rect x="608.73" y="342.92" width="3.29" height="5.18" rx="0.79" transform="translate(1220.75 691.02) rotate(180)" style="fill:#407BFF"></rect><rect x="603.15" y="342.92" width="3.29" height="5.18" rx="0.79" transform="translate(1209.6 691.02) rotate(180)" style="fill:#407BFF"></rect><rect x="597.58" y="342.92" width="3.29" height="5.18" rx="0.79" transform="translate(1198.44 691.02) rotate(180)" style="fill:#407BFF"></rect><rect x="592" y="342.92" width="3.29" height="5.18" rx="0.79" transform="translate(1187.29 691.02) rotate(180)" style="fill:#407BFF"></rect><rect x="586.42" y="342.92" width="3.29" height="5.18" rx="0.79" transform="translate(1176.14 691.02) rotate(180)" style="fill:#407BFF"></rect><rect x="580.85" y="342.92" width="3.29" height="5.18" rx="0.79" transform="translate(1164.98 691.02) rotate(180)" style="fill:#407BFF"></rect><rect x="575.27" y="342.92" width="3.29" height="5.18" rx="0.79" transform="translate(1153.83 691.02) rotate(180)" style="fill:#407BFF"></rect><rect x="569.69" y="342.92" width="3.29" height="5.18" rx="0.79" transform="translate(1142.68 691.02) rotate(180)" style="fill:#407BFF"></rect><rect x="564.11" y="342.92" width="3.29" height="5.18" rx="0.79" transform="translate(1131.52 691.02) rotate(180)" style="fill:#407BFF"></rect><rect x="558.54" y="342.92" width="3.29" height="5.18" rx="0.79" transform="translate(1120.37 691.02) rotate(180)" style="fill:#407BFF"></rect><rect x="552.96" y="342.92" width="3.29" height="5.18" rx="0.79" transform="translate(1109.21 691.02) rotate(180)" style="fill:#407BFF"></rect><rect x="547.38" y="342.92" width="3.29" height="5.18" rx="0.79" transform="translate(1098.06 691.02) rotate(180)" style="fill:#407BFF"></rect><rect x="541.81" y="342.92" width="3.29" height="5.18" rx="0.79" transform="translate(1086.91 691.02) rotate(180)" style="fill:#407BFF"></rect><rect x="536.23" y="342.92" width="3.29" height="5.18" rx="0.79" transform="translate(1075.75 691.02) rotate(180)" style="fill:#407BFF"></rect><rect x="530.65" y="342.92" width="3.29" height="5.18" rx="0.79" transform="translate(1064.6 691.02) rotate(180)" style="fill:#407BFF"></rect><rect x="525.08" y="342.92" width="3.29" height="5.18" rx="0.79" transform="translate(1053.44 691.02) rotate(180)" style="fill:#407BFF"></rect><rect x="519.5" y="342.92" width="3.29" height="5.18" rx="0.79" transform="translate(1042.29 691.02) rotate(180)" style="fill:#407BFF"></rect><rect x="513.92" y="342.92" width="3.29" height="5.18" rx="0.79" transform="translate(1031.14 691.02) rotate(180)" style="fill:#407BFF"></rect><rect x="508.35" y="342.92" width="3.29" height="5.18" rx="0.79" transform="translate(1019.98 691.02) rotate(180)" style="fill:#407BFF"></rect><rect x="502.77" y="342.92" width="3.29" height="5.18" rx="0.79" transform="translate(1008.83 691.02) rotate(180)" style="fill:#407BFF"></rect><path d="M632.34,365s-2.63,2.2-23.54,2.94-42.52-3.09-55.52-5.47-43-9.14-45-11.52,47.62-3.53,90.59,1.39C634,356.34,634.09,361.48,632.34,365Z" style="fill:#263238"></path><path d="M584.25,356V371.8s-16,1-21.62-3.71c-3.83-3.2-2.36-9.28,5-11A52,52,0,0,1,584.25,356Z" style="fill:#407BFF"></path><path d="M616.69,356.31v15.85s-16,1-21.62-3.71c-3.84-3.2-2.36-9.29,5-11A52.16,52.16,0,0,1,616.69,356.31Z" style="fill:#407BFF"></path><path d="M584.25,356V371.8s-16,1-21.62-3.71c-3.83-3.2-2.36-9.28,5-11A52,52,0,0,1,584.25,356Z" style="fill:#fff;opacity:0.5"></path><g style="opacity:0.5"><path d="M616.69,356.31v15.85s-16,1-21.62-3.71c-3.84-3.2-2.36-9.29,5-11A52.16,52.16,0,0,1,616.69,356.31Z" style="fill:#fff"></path></g><path d="M614.54,356.15v16.09h-2l.06-16.14C613.28,356.1,613.94,356.11,614.54,356.15Z" style="fill:#407BFF"></path><path d="M581.88,355.76v16.09h-2l.07-16.14C580.62,355.71,581.28,355.73,581.88,355.76Z" style="fill:#407BFF"></path><polygon points="709.39 347.45 701.18 342.92 697.56 342.92 705.41 347.45 709.39 347.45" style="fill:#fff;opacity:0.4"></polygon><polygon points="702.57 347.45 695.41 342.92 694.23 342.92 701.62 347.45 702.57 347.45" style="fill:#fff;opacity:0.4"></polygon></g><g id="freepik--airplane-2--inject-334"><polygon points="258.6 457.93 263.01 452.85 263.01 449.1 266.1 449.31 266.18 453.37 260.62 459.84 258.6 457.93" style="fill:#263238"></polygon><circle cx="260.02" cy="457.96" r="3.86" style="fill:#263238"></circle><path d="M262,458a2,2,0,1,1-2-2A2,2,0,0,1,262,458Z" style="fill:#fff;opacity:0.30000000000000004"></path><polygon points="377.59 460.46 381.99 455.38 382.11 449.11 385.2 449.31 385.17 455.9 379.6 462.37 377.59 460.46" style="fill:#263238"></polygon><path d="M382.86,460.5a3.86,3.86,0,1,1-3.85-3.86A3.85,3.85,0,0,1,382.86,460.5Z" style="fill:#263238"></path><path d="M381,460.5a2,2,0,1,1-2-2A2,2,0,0,1,381,460.5Z" style="fill:#fff;opacity:0.30000000000000004"></path><polygon points="384.66 454.45 382.03 455.9 387.59 462.37 389.61 460.46 384.66 454.45" style="fill:#263238"></polygon><circle cx="388.19" cy="460.5" r="3.86" style="fill:#263238"></circle><path d="M386.22,460.5a2,2,0,1,0,2-2A2,2,0,0,0,386.22,460.5Z" style="fill:#fff;opacity:0.30000000000000004"></path><path d="M244,449.47s-11.89-.38-19.77-5.27a10.5,10.5,0,0,1-1.29-16.7c6.61-5.84,19.28-14.53,38.64-17.72,30.25-5,210.73-1,210.73-1l81.38,2.83-2.23,11.66s-124.6,22-161.42,26.32S244,449.47,244,449.47Z" style="fill:#407BFF"></path><path d="M244,449.47s-11.89-.38-19.77-5.27a10.5,10.5,0,0,1-1.29-16.7c6.61-5.84,19.28-14.53,38.64-17.72,30.25-5,210.73-1,210.73-1l81.38,2.83-2.23,11.66s-124.6,22-161.42,26.32S244,449.47,244,449.47Z" style="fill:#fff;opacity:0.8"></path><path d="M494.81,409.52l44.61-43.79a30,30,0,0,1,20.93-8.58l14.07,0-20.78,54.46Z" style="fill:#407BFF"></path><path d="M523.49,421.9l28.32,1,32-9.34s-7.53-3.67-18.54-1.09C563.47,412.91,525.73,421.5,523.49,421.9Z" style="fill:#407BFF"></path><path d="M225.33,425.46h26.28a1.65,1.65,0,0,0,1.4-.77l1.53-2.43a1.66,1.66,0,0,0-1.4-2.54l-19.56.06a64.61,64.61,0,0,0-8.25,5.66Z" style="fill:#407BFF"></path><path d="M553.65,387.64a10.07,10.07,0,1,1-10.06-10.07A10.06,10.06,0,0,1,553.65,387.64Z" style="fill:#fff;opacity:0.4"></path><rect x="271.22" y="419.73" width="4.16" height="6.55" rx="0.86" style="fill:#407BFF"></rect><rect x="278.69" y="419.73" width="4.16" height="6.55" rx="0.86" style="fill:#407BFF"></rect><rect x="286.17" y="419.73" width="4.16" height="6.55" rx="0.86" style="fill:#407BFF"></rect><rect x="293.64" y="419.73" width="4.16" height="6.55" rx="0.86" style="fill:#407BFF"></rect><rect x="301.11" y="419.73" width="4.16" height="6.55" rx="0.86" style="fill:#407BFF"></rect><rect x="308.59" y="419.73" width="4.16" height="6.55" rx="0.86" style="fill:#407BFF"></rect><rect x="316.06" y="419.73" width="4.16" height="6.55" rx="0.86" style="fill:#407BFF"></rect><rect x="323.54" y="419.73" width="4.16" height="6.55" rx="0.86" style="fill:#407BFF"></rect><rect x="331.01" y="419.73" width="4.16" height="6.55" rx="0.86" style="fill:#407BFF"></rect><rect x="338.49" y="419.73" width="4.16" height="6.55" rx="0.86" style="fill:#407BFF"></rect><rect x="354.43" y="419.73" width="4.16" height="6.55" rx="0.86" style="fill:#407BFF"></rect><rect x="361.48" y="419.73" width="4.16" height="6.55" rx="0.86" style="fill:#407BFF"></rect><rect x="368.53" y="419.73" width="4.16" height="6.55" rx="0.86" style="fill:#407BFF"></rect><rect x="375.58" y="419.73" width="4.16" height="6.55" rx="0.86" style="fill:#407BFF"></rect><rect x="382.64" y="419.73" width="4.16" height="6.55" rx="0.86" style="fill:#407BFF"></rect><rect x="389.69" y="419.73" width="4.16" height="6.55" rx="0.86" style="fill:#407BFF"></rect><rect x="396.74" y="419.73" width="4.16" height="6.55" rx="0.86" style="fill:#407BFF"></rect><rect x="403.8" y="419.73" width="4.16" height="6.55" rx="0.86" style="fill:#407BFF"></rect><rect x="410.85" y="419.73" width="4.16" height="6.55" rx="0.86" style="fill:#407BFF"></rect><rect x="417.9" y="419.73" width="4.16" height="6.55" rx="0.86" style="fill:#407BFF"></rect><rect x="424.96" y="419.73" width="4.16" height="6.55" rx="0.86" style="fill:#407BFF"></rect><rect x="432.01" y="419.73" width="4.16" height="6.55" rx="0.86" style="fill:#407BFF"></rect><rect x="439.06" y="419.73" width="4.16" height="6.55" rx="0.86" style="fill:#407BFF"></rect><rect x="446.12" y="419.73" width="4.16" height="6.55" rx="0.86" style="fill:#407BFF"></rect><rect x="453.17" y="419.73" width="4.16" height="6.55" rx="0.86" style="fill:#407BFF"></rect><rect x="460.22" y="419.73" width="4.16" height="6.55" rx="0.86" style="fill:#407BFF"></rect><rect x="467.28" y="419.73" width="4.16" height="6.55" rx="0.86" style="fill:#407BFF"></rect><rect x="474.33" y="419.73" width="4.16" height="6.55" rx="0.86" style="fill:#407BFF"></rect><rect x="481.38" y="419.73" width="4.16" height="6.55" rx="0.86" style="fill:#407BFF"></rect><rect x="488.44" y="419.73" width="4.16" height="6.55" rx="0.86" style="fill:#407BFF"></rect><path d="M328.73,447.62s3.33,2.78,29.77,3.72,53.77-3.91,70.21-6.91,54.44-11.56,56.89-14.57-60.22-4.48-114.57,1.75C326.62,436.7,326.51,443.21,328.73,447.62Z" style="fill:#407BFF"></path><path d="M389.55,436.22v20s20.24,1.22,27.34-4.69c4.85-4,3-11.75-6.31-13.86A65.7,65.7,0,0,0,389.55,436.22Z" style="fill:#407BFF"></path><path d="M348.53,436.67l0,20s20.25,1.22,27.34-4.69c4.86-4,3-11.75-6.31-13.86A65.64,65.64,0,0,0,348.53,436.67Z" style="fill:#407BFF"></path><path d="M389.55,436.22v20s20.24,1.22,27.34-4.69c4.85-4,3-11.75-6.31-13.86A65.7,65.7,0,0,0,389.55,436.22Z" style="fill:#fff;opacity:0.5"></path><g style="opacity:0.5"><path d="M348.53,436.67l0,20s20.25,1.22,27.34-4.69c4.86-4,3-11.75-6.31-13.86A65.64,65.64,0,0,0,348.53,436.67Z" style="fill:#fff"></path></g><path d="M351.24,436.46v20.35h2.57l-.09-20.42C352.83,436.4,352,436.42,351.24,436.46Z" style="fill:#407BFF"></path><path d="M392.55,436v20.35h2.56L395,435.92C394.14,435.91,393.31,435.93,392.55,436Z" style="fill:#407BFF"></path><polygon points="231.28 425.47 241.67 419.73 246.25 419.73 236.32 425.47 231.28 425.47" style="fill:#fff;opacity:0.4"></polygon><polygon points="239.9 425.46 248.96 419.73 250.46 419.74 241.1 425.47 239.9 425.46" style="fill:#fff;opacity:0.4"></polygon></g><g id="freepik--airplane-1--inject-334"><polygon points="82.25 368.1 86.26 363.47 86.26 360.05 89.08 360.24 89.16 363.94 84.08 369.84 82.25 368.1" style="fill:#263238"></polygon><path d="M87.06,368.13a3.52,3.52,0,1,1-3.52-3.51A3.52,3.52,0,0,1,87.06,368.13Z" style="fill:#263238"></path><path d="M85.34,368.13a1.8,1.8,0,1,1-1.8-1.79A1.79,1.79,0,0,1,85.34,368.13Z" style="fill:#fff;opacity:0.30000000000000004"></path><polygon points="190.73 370.41 194.75 365.78 194.85 360.06 197.67 360.25 197.64 366.25 192.57 372.15 190.73 370.41" style="fill:#263238"></polygon><path d="M195.54,370.44a3.52,3.52,0,1,1-3.51-3.51A3.52,3.52,0,0,1,195.54,370.44Z" style="fill:#263238"></path><path d="M193.83,370.44a1.8,1.8,0,1,1-1.8-1.79A1.81,1.81,0,0,1,193.83,370.44Z" style="fill:#fff;opacity:0.30000000000000004"></path><polygon points="197.18 364.93 194.78 366.25 199.86 372.15 201.69 370.41 197.18 364.93" style="fill:#263238"></polygon><path d="M196.88,370.44a3.52,3.52,0,1,0,3.52-3.51A3.53,3.53,0,0,0,196.88,370.44Z" style="fill:#263238"></path><path d="M198.6,370.44a1.8,1.8,0,1,0,1.8-1.79A1.81,1.81,0,0,0,198.6,370.44Z" style="fill:#fff;opacity:0.30000000000000004"></path><path d="M68.89,360.39s-10.85-.35-18-4.81a9.55,9.55,0,0,1-1.18-15.22c6-5.33,17.58-13.25,35.23-16.16,27.58-4.53,192.13-.94,192.13-.94l74.2,2.57-2,10.64s-113.6,20-147.18,24S68.89,360.39,68.89,360.39Z" style="fill:#407BFF"></path><path d="M68.89,360.39s-10.85-.35-18-4.81a9.55,9.55,0,0,1-1.18-15.22c6-5.33,17.58-13.25,35.23-16.16,27.58-4.53,192.13-.94,192.13-.94l74.2,2.57-2,10.64s-113.6,20-147.18,24S68.89,360.39,68.89,360.39Z" style="fill:#fff;opacity:0.8"></path><path d="M297.61,324,338.29,284a27.34,27.34,0,0,1,19.08-7.83l12.83,0-18.95,49.65Z" style="fill:#263238"></path><path d="M323.77,335.25l25.82.93,29.17-8.51s-6.88-3.35-16.91-1C360.21,327.05,325.81,334.88,323.77,335.25Z" style="fill:#263238"></path><path d="M51.91,338.49l24,0a1.52,1.52,0,0,0,1.28-.71l1.4-2.21a1.52,1.52,0,0,0-1.29-2.32l-17.83.05a60.57,60.57,0,0,0-7.52,5.17Z" style="fill:#407BFF"></path><circle cx="342.08" cy="304.01" r="9.18" transform="translate(-29.32 36.61) rotate(-5.87)" style="fill:#407BFF"></circle><rect x="93.75" y="333.27" width="3.8" height="5.97" rx="0.91" style="fill:#407BFF"></rect><rect x="100.56" y="333.27" width="3.8" height="5.97" rx="0.91" style="fill:#407BFF"></rect><rect x="107.38" y="333.27" width="3.8" height="5.97" rx="0.91" style="fill:#407BFF"></rect><rect x="114.19" y="333.27" width="3.8" height="5.97" rx="0.91" style="fill:#407BFF"></rect><rect x="121.01" y="333.27" width="3.8" height="5.97" rx="0.91" style="fill:#407BFF"></rect><rect x="127.82" y="333.27" width="3.8" height="5.97" rx="0.91" style="fill:#407BFF"></rect><rect x="134.64" y="333.27" width="3.8" height="5.97" rx="0.91" style="fill:#407BFF"></rect><rect x="141.45" y="333.27" width="3.8" height="5.97" rx="0.91" style="fill:#407BFF"></rect><rect x="148.27" y="333.27" width="3.8" height="5.97" rx="0.91" style="fill:#407BFF"></rect><rect x="155.08" y="333.27" width="3.8" height="5.97" rx="0.91" style="fill:#407BFF"></rect><rect x="169.62" y="333.27" width="3.8" height="5.97" rx="0.91" style="fill:#407BFF"></rect><rect x="176.05" y="333.27" width="3.8" height="5.97" rx="0.91" style="fill:#407BFF"></rect><rect x="182.48" y="333.27" width="3.8" height="5.97" rx="0.91" style="fill:#407BFF"></rect><rect x="188.91" y="333.27" width="3.8" height="5.97" rx="0.91" style="fill:#407BFF"></rect><rect x="195.34" y="333.27" width="3.8" height="5.97" rx="0.91" style="fill:#407BFF"></rect><rect x="201.77" y="333.27" width="3.8" height="5.97" rx="0.91" style="fill:#407BFF"></rect><rect x="208.2" y="333.27" width="3.8" height="5.97" rx="0.91" style="fill:#407BFF"></rect><rect x="214.63" y="333.27" width="3.8" height="5.97" rx="0.91" style="fill:#407BFF"></rect><rect x="221.06" y="333.27" width="3.8" height="5.97" rx="0.91" style="fill:#407BFF"></rect><rect x="227.49" y="333.27" width="3.8" height="5.97" rx="0.91" style="fill:#407BFF"></rect><rect x="233.92" y="333.27" width="3.8" height="5.97" rx="0.91" style="fill:#407BFF"></rect><rect x="240.35" y="333.27" width="3.8" height="5.97" rx="0.91" style="fill:#407BFF"></rect><rect x="246.79" y="333.27" width="3.8" height="5.97" rx="0.91" style="fill:#407BFF"></rect><rect x="253.22" y="333.27" width="3.8" height="5.97" rx="0.91" style="fill:#407BFF"></rect><rect x="259.65" y="333.27" width="3.8" height="5.97" rx="0.91" style="fill:#407BFF"></rect><rect x="266.08" y="333.27" width="3.8" height="5.97" rx="0.91" style="fill:#407BFF"></rect><rect x="272.51" y="333.27" width="3.8" height="5.97" rx="0.91" style="fill:#407BFF"></rect><rect x="278.94" y="333.27" width="3.8" height="5.97" rx="0.91" style="fill:#407BFF"></rect><rect x="285.37" y="333.27" width="3.8" height="5.97" rx="0.91" style="fill:#407BFF"></rect><rect x="291.8" y="333.27" width="3.8" height="5.97" rx="0.91" style="fill:#407BFF"></rect><path d="M145.8,355.44s3,2.54,27.15,3.4,49-3.57,64-6.31S286.6,342,288.83,339.25s-54.91-4.08-104.45,1.6C143.88,345.49,143.78,351.43,145.8,355.44Z" style="fill:#263238"></path><path d="M201.64,348.31v18.27s18.46,1.12,24.93-4.28c4.42-3.68,2.72-10.71-5.76-12.63A60,60,0,0,0,201.64,348.31Z" style="fill:#407BFF"></path><path d="M164.24,348.72V367s18.45,1.12,24.92-4.28c4.43-3.68,2.72-10.71-5.75-12.63A60,60,0,0,0,164.24,348.72Z" style="fill:#407BFF"></path><path d="M166.71,348.53v18.55H169L169,348.47C168.16,348.47,167.4,348.49,166.71,348.53Z" style="fill:#fff;opacity:0.4"></path><path d="M204.37,348.09v18.55h2.34L206.63,348C205.82,348,205.06,348,204.37,348.09Z" style="fill:#fff;opacity:0.4"></path><polygon points="57.33 338.51 66.81 333.27 70.98 333.27 61.93 338.51 57.33 338.51" style="fill:#fff;opacity:0.4"></polygon><polygon points="65.2 338.5 73.46 333.27 74.82 333.28 66.29 338.51 65.2 338.5" style="fill:#fff;opacity:0.4"></polygon></g></svg>
