<svg xmlns="http://www.w3.org/2000/svg" viewBox="0 0 750 500"><g id="freepik--background-complete--inject-150"><rect x="110.17" y="387.65" width="85.38" height="10.39" style="fill:#ebebeb"></rect><rect x="264.95" y="387.65" width="85.38" height="10.39" style="fill:#ebebeb"></rect><rect x="419.72" y="387.65" width="85.38" height="10.39" style="fill:#ebebeb"></rect><path d="M413.42,83.28c.59-4.28-5.45-7.8-10-8.16-2.16-.18-4.41.15-6.46-.56-4.44-1.55-6.21-7.28-10.55-9.11-3.24-1.37-7-.15-10.11,1.43s-6.24,3.57-9.75,3.79c-3.05.2-6.36-.93-9,.56-2,1.11-3,3.4-4.87,4.75s-4.13,1.61-6.36,1.73-4.53.14-6.55,1.07-3.71,3.07-3.29,5.26Z" style="fill:#fafafa"></path><path d="M372,161c.86-6.26-8-11.4-14.6-11.94-3.17-.25-6.45.23-9.45-.82-6.49-2.26-9.09-10.65-15.42-13.32-4.74-2-10.19-.22-14.78,2.09s-9.13,5.22-14.26,5.55c-4.47.29-9.31-1.37-13.22.81-2.91,1.63-4.43,5-7.11,7s-6.05,2.34-9.3,2.52-6.63.21-9.59,1.56-5.42,4.5-4.8,7.7Z" style="fill:#ebebeb"></path><path d="M199.48,107.23c.75-5.44-6.93-9.92-12.7-10.38-2.75-.23-5.61.2-8.22-.71-5.65-2-7.9-9.27-13.41-11.59-4.12-1.74-8.87-.19-12.86,1.82s-7.94,4.54-12.41,4.82c-3.88.25-8.09-1.19-11.49.71-2.53,1.41-3.86,4.33-6.19,6s-5.26,2-8.09,2.19-5.76.18-8.34,1.36-4.71,3.91-4.18,6.7Z" style="fill:#f5f5f5"></path><path d="M681.9,110.55c.59-4.28-5.45-7.8-10-8.16-2.17-.18-4.41.15-6.46-.56-4.44-1.55-6.22-7.29-10.55-9.11-3.24-1.37-7-.15-10.11,1.43s-6.24,3.57-9.75,3.79c-3,.2-6.36-.93-9,.56-2,1.11-3,3.4-4.87,4.75s-4.13,1.6-6.36,1.73-4.53.14-6.56,1.07-3.7,3.07-3.28,5.26Z" style="fill:#f5f5f5"></path><path d="M172.46,315a5,5,0,0,1,3.5,1.69,8.51,8.51,0,0,1,1.85,3.5,15.4,15.4,0,0,1-.25,7.91c-2.72-.9-4.45-3.73-5.24-5.22-1.25-2.36-2.07-7.37.14-7.88" style="fill:#f5f5f5"></path><path d="M181.51,331a4.21,4.21,0,0,1-.3-4.23,5.57,5.57,0,0,1,3.31-2.81,2.34,2.34,0,0,1,2,.05,1.76,1.76,0,0,1,.74,1.67,3.57,3.57,0,0,1-.73,1.76c-1.26,1.81-2.82,3.33-5,3.56" style="fill:#f5f5f5"></path><path d="M181.46,337.42a8.62,8.62,0,0,1-.38-1.66,7.82,7.82,0,0,1-.08-1.86,17.71,17.71,0,0,1,.25-2.26,8.46,8.46,0,0,1,1.7-3.74,5.93,5.93,0,0,1,.9-.88c.24-.18.38-.26.39-.24s-.5.42-1.13,1.24a9.06,9.06,0,0,0-1.57,3.68,21,21,0,0,0-.28,2.22,8.93,8.93,0,0,0,0,1.81A10.87,10.87,0,0,1,181.46,337.42Z" style="fill:#e0e0e0"></path><path d="M173.43,318.73a4.93,4.93,0,0,1,.41.75c.25.5.6,1.22,1,2.12.85,1.78,2,4.27,3.19,7s2.21,5.32,2.91,7.17c.34.93.62,1.68.79,2.21a4.73,4.73,0,0,1,.25.82,4.73,4.73,0,0,1-.35-.78c-.23-.56-.53-1.29-.88-2.17-.74-1.84-1.79-4.37-3-7.14l-3.11-7.08c-.38-.87-.7-1.59-.94-2.15A4.37,4.37,0,0,1,173.43,318.73Z" style="fill:#e0e0e0"></path><path d="M178.9,333.15a9.92,9.92,0,0,0-8.36-3.47c-.79.08-1.72.36-1.95,1.13s.37,1.52,1,2a8.45,8.45,0,0,0,9.37.53" style="fill:#f5f5f5"></path><path d="M172.15,331.38a1.23,1.23,0,0,1,.45,0c.29,0,.71,0,1.23.06a11.22,11.22,0,0,1,3.94,1,7.28,7.28,0,0,1,1.82,1.34,6.64,6.64,0,0,1,1.08,1.5,6.79,6.79,0,0,1,.48,1.14,1.3,1.3,0,0,1,.11.44c-.06,0-.25-.6-.77-1.48A7.47,7.47,0,0,0,179.4,334a7,7,0,0,0-1.77-1.27,12.69,12.69,0,0,0-3.82-1.1A13.06,13.06,0,0,1,172.15,331.38Z" style="fill:#e0e0e0"></path><path d="M564.26,57.67s-.53-.14-1.48-.33a11.94,11.94,0,0,0-4-.11,11,11,0,0,0-5.41,2.37,11.38,11.38,0,0,0-3.81,6.07v.07l-.24.9-.34-.85a12.15,12.15,0,0,0-4.57-5.54,11.87,11.87,0,0,0-5.59-1.9,15.58,15.58,0,0,0-5.48.7,4.75,4.75,0,0,1,1.4-.6,11.45,11.45,0,0,1,4.11-.52,11.85,11.85,0,0,1,5.86,1.85,12.47,12.47,0,0,1,4.83,5.78l-.58,0,0-.07A11.63,11.63,0,0,1,553,59.17a11.25,11.25,0,0,1,9.86-2.06A4.66,4.66,0,0,1,564.26,57.67Z" style="fill:#e0e0e0"></path><path d="M468.25,62.64a16,16,0,0,1-1.34,1.55,33.41,33.41,0,0,0-3.28,4.46A32.49,32.49,0,0,0,458.74,86v.22l-.61.05a29,29,0,0,0-8-15.91,39.61,39.61,0,0,0-5.83-4.73,1.68,1.68,0,0,1,.48.22c.3.17.76.39,1.31.75A26.86,26.86,0,0,1,450.45,70a29,29,0,0,1,5,6.56,28.47,28.47,0,0,1,3.27,9.57l-.6,0V86a31.89,31.89,0,0,1,5.13-17.58A28.87,28.87,0,0,1,466.74,64c.45-.49.85-.82,1.1-1.06S468.24,62.62,468.25,62.64Z" style="fill:#e0e0e0"></path></g><g id="freepik--Birds--inject-150"><path d="M489.6,152.2c0,.06-1.05-.36-3-.79a23.89,23.89,0,0,0-8.34-.32A22.46,22.46,0,0,0,467,155.94a23.25,23.25,0,0,0-7.93,12.59,1,1,0,0,0,0,.14l-.23.9-.35-.85A25,25,0,0,0,449,157.25a24.31,24.31,0,0,0-11.6-3.87,25.71,25.71,0,0,0-8.28.76c-1.92.51-2.93,1-2.95.89a4.28,4.28,0,0,1,.72-.34,18.33,18.33,0,0,1,2.16-.78,24.54,24.54,0,0,1,8.38-.95,24.22,24.22,0,0,1,11.87,3.82,25.38,25.38,0,0,1,9.76,11.71l-.58,0,0-.15a23.67,23.67,0,0,1,8.17-12.89,22.46,22.46,0,0,1,11.53-4.83,23,23,0,0,1,8.45.51,16.94,16.94,0,0,1,2.19.7A4.94,4.94,0,0,1,489.6,152.2Z" style="fill:#263238"></path><path d="M573,106.46c0,.05-.59-.17-1.66-.39a13.59,13.59,0,0,0-4.56-.13,12.3,12.3,0,0,0-6.11,2.67,12.69,12.69,0,0,0-4.31,6.86l0,.07-.23.9-.35-.85a13.64,13.64,0,0,0-5.16-6.25,13.19,13.19,0,0,0-6.32-2.14,14.48,14.48,0,0,0-4.53.37c-1.06.26-1.62.49-1.64.44s.13-.09.39-.21a8.05,8.05,0,0,1,1.18-.45,13.19,13.19,0,0,1,4.63-.58,13.47,13.47,0,0,1,6.59,2.1,14,14,0,0,1,5.43,6.49l-.58,0,0-.08a13.15,13.15,0,0,1,4.55-7.16,12.65,12.65,0,0,1,11.08-2.33,8.89,8.89,0,0,1,1.2.41C572.84,106.37,573,106.44,573,106.46Z" style="fill:#263238"></path><path d="M518.46,87.73a23.54,23.54,0,0,1-1.6,1.82A39,39,0,0,0,513,94.83a38.41,38.41,0,0,0-5.81,20.56,2.35,2.35,0,0,0,0,.26l-.6,0a33.76,33.76,0,0,0-3.76-11.13,34.7,34.7,0,0,0-5.72-7.74,35.37,35.37,0,0,0-5-4.2c-1.27-.88-2-1.32-2-1.37a2.56,2.56,0,0,1,.57.27c.35.21.89.47,1.54.9a31.38,31.38,0,0,1,5.13,4.1,34,34,0,0,1,9.78,19.08l-.6,0v-.26a37.88,37.88,0,0,1,6.05-20.8,35.36,35.36,0,0,1,4.1-5.21c.53-.58,1-1,1.3-1.26A3.4,3.4,0,0,1,518.46,87.73Z" style="fill:#263238"></path></g><g id="freepik--speech-bubble--inject-150"><path d="M630.1,240.2l7.09-12.51a33.54,33.54,0,1,1,8,8.93v0Z" style="fill:#fafafa"></path><path d="M630.1,240.2l15.1-3.69-.08.21v0a.13.13,0,0,1,0-.18.12.12,0,0,1,.16,0,33.34,33.34,0,0,0,16,6.63,31.19,31.19,0,0,0,5.25.24c.9-.06,1.82-.08,2.74-.16l2.8-.43a33.47,33.47,0,0,0,20.63-13.31,33.06,33.06,0,0,0,5.56-12.77,33.77,33.77,0,0,0-.4-14.68,32.59,32.59,0,0,0-7.08-13.57A33.29,33.29,0,0,0,678,179.39a33.76,33.76,0,0,0-14.79-2.28,32.65,32.65,0,0,0-13.6,4,33.65,33.65,0,0,0-15.74,19.28,35.91,35.91,0,0,0-1.47,10.76,33.18,33.18,0,0,0,4.86,16.49.15.15,0,0,1,0,.13l-7.2,12.44c.42-.77,2.56-4.6,7-12.57v.13a33.21,33.21,0,0,1-5-16.61,35.82,35.82,0,0,1,1.45-10.89,33.94,33.94,0,0,1,15.89-19.58,33.05,33.05,0,0,1,13.79-4.07,34.22,34.22,0,0,1,15,2.3,33.56,33.56,0,0,1,12.91,9.22,33.06,33.06,0,0,1,7.19,13.78,34.2,34.2,0,0,1,.39,14.91,33.43,33.43,0,0,1-5.66,13,33.82,33.82,0,0,1-20.94,13.43l-2.84.43c-.93.08-1.86.1-2.77.15a29.85,29.85,0,0,1-5.31-.27,33.38,33.38,0,0,1-16.06-6.79l.18-.18v0a.14.14,0,0,1,0,.18l0,0Z" style="fill:#263238"></path><polygon points="653.03 211.46 656.42 208.07 662.96 213.88 675.8 201.53 678.95 204.92 662.48 220.43 653.03 211.46" style="fill:#E1A860"></polygon></g><g id="freepik--Aircraft--inject-150"><path d="M79.53,228.48c.07,1,1.68,25,34.82,44.72,26.48,15.73,61.38,29.38,82.23,31.66H445s41.8-1.73,54-3.32c15-2,27.4-11.37,29.43-18.48s-1.66-15-5.29-19.43c-2.73-3.33-22.67-23-24.36-24.36s-19.29-15.9-48.05-15.9L89.39,223.3S79.07,222.26,79.53,228.48Z" style="fill:#ebebeb"></path><polygon points="84.69 153.85 73.23 153.85 87.92 223.23 139.21 223.23 84.69 153.85" style="fill:#E1A860"></polygon><path d="M113.42,223.23a2.94,2.94,0,0,1-.38-.62l-1-1.82c-.86-1.65-2.07-3.94-3.54-6.75L97,191.68l-6.3-12.34a34.72,34.72,0,0,0-3-5.21,26.7,26.7,0,0,0-9.64-8.24c-.81-.4-1.44-.69-1.88-.87a4.86,4.86,0,0,1-.65-.31,3.16,3.16,0,0,1,.69.21,19.51,19.51,0,0,1,1.92.79,25.19,25.19,0,0,1,6.36,4.23,26.56,26.56,0,0,1,3.55,3.94,35,35,0,0,1,3.06,5.24c2,3.79,4.09,7.95,6.33,12.32l11.39,22.43c1.42,2.84,2.57,5.16,3.4,6.83q.57,1.16.9,1.86A3.88,3.88,0,0,1,113.42,223.23Z" style="fill:#263238"></path><path d="M121.44,200.61c0,.14-8.64.26-19.3.26s-19.3-.12-19.3-.26,8.64-.26,19.3-.26S121.44,200.46,121.44,200.61Z" style="fill:#263238"></path><path d="M104.79,196.65c0-.05.34-.27.83.07a1,1,0,0,1-.32,1.83,1.05,1.05,0,0,1-1.19-.34,1.08,1.08,0,0,1-.12-1c.21-.55.65-.59.64-.53s-.23.22-.29.62a.78.78,0,0,0,.15.59.6.6,0,0,0,.66.15.63.63,0,0,0,.45-.49.78.78,0,0,0-.22-.57C105.11,196.7,104.81,196.73,104.79,196.65Z" style="fill:#263238"></path><path d="M112.18,196.81c0-.05.34-.27.83.07a1,1,0,0,1,.45.87,1.07,1.07,0,1,1-2.08-.36c.2-.55.64-.59.64-.53s-.23.22-.29.62a.81.81,0,0,0,.15.6.61.61,0,0,0,.65.14.63.63,0,0,0,.46-.49.78.78,0,0,0-.22-.57C112.5,196.86,112.19,196.89,112.18,196.81Z" style="fill:#263238"></path><path d="M89.21,196.26s.34-.27.83.06a1.09,1.09,0,0,1,.45.88,1.11,1.11,0,0,1-2,.62,1.12,1.12,0,0,1-.13-1c.21-.56.65-.6.65-.53s-.24.22-.29.62a.75.75,0,0,0,.15.59.63.63,0,0,0,.65.15.61.61,0,0,0,.45-.49.77.77,0,0,0-.21-.58C89.53,196.31,89.22,196.34,89.21,196.26Z" style="fill:#263238"></path><rect x="408.12" y="313.9" width="5.3" height="19.18" style="fill:#263238"></rect><circle cx="402.1" cy="330.35" r="8.51" transform="translate(-115.82 381.08) rotate(-45)" style="fill:#455a64"></circle><path d="M406.64,330.35a4.54,4.54,0,1,1-4.54-4.54A4.54,4.54,0,0,1,406.64,330.35Z" style="fill:#263238"></path><circle cx="419.26" cy="330.35" r="8.51" transform="translate(-94.19 184.49) rotate(-22.38)" style="fill:#455a64"></circle><path d="M423.8,330.35a4.54,4.54,0,1,1-4.54-4.54A4.53,4.53,0,0,1,423.8,330.35Z" style="fill:#263238"></path><rect x="404.59" y="301.54" width="12.36" height="12.36" rx="2.37" style="fill:#E1A860"></rect><g style="opacity:0.30000000000000004"><rect x="404.59" y="301.54" width="12.36" height="12.36" rx="2.37"></rect></g><rect x="225.56" y="313.9" width="5.3" height="19.18" style="fill:#263238"></rect><circle cx="219.54" cy="330.35" r="8.51" transform="translate(-152.53 467.79) rotate(-76.67)" style="fill:#455a64"></circle><path d="M224.07,330.35a4.54,4.54,0,1,1-4.53-4.54A4.53,4.53,0,0,1,224.07,330.35Z" style="fill:#263238"></path><circle cx="236.7" cy="330.35" r="8.51" transform="translate(-107.94 114.99) rotate(-22.38)" style="fill:#455a64"></circle><path d="M241.24,330.35a4.54,4.54,0,1,1-4.54-4.54A4.53,4.53,0,0,1,241.24,330.35Z" style="fill:#263238"></path><rect x="222.03" y="301.54" width="12.36" height="12.36" rx="2.37" style="fill:#E1A860"></rect><g style="opacity:0.30000000000000004"><rect x="222.03" y="301.54" width="12.36" height="12.36" rx="2.37"></rect></g><path d="M137.05,285.23c21.87,10.51,44.55,18.54,60.1,20.24H445.6s41.8-1.73,54-3.32c15-1.95,26.63-11.37,28.66-18.48Z" style="fill:#E1A860"></path><path d="M473.43,249s1.57,6.71,7.84,6.71h34.06l-6.49-6.54Z" style="fill:#fff"></path><path d="M473.43,249a5.08,5.08,0,0,1,.66,0l2,0,7.39,0H509l.07.07,6.5,6.54.44.45h-.91l-31.77-.08c-1,0-2,0-2.91-.08a9,9,0,0,1-1.33-.26,7.78,7.78,0,0,1-4.23-3.31,10.24,10.24,0,0,1-1.15-2.37c-.1-.28-.16-.5-.2-.65a.7.7,0,0,1,0-.23s.1.29.33.85a11.82,11.82,0,0,0,1.21,2.28,7.81,7.81,0,0,0,3,2.68,7.6,7.6,0,0,0,1.13.45,10.51,10.51,0,0,0,1.29.23c.88.08,1.86,0,2.87,0l31.77-.08h.28l-.18.45-6.49-6.55.18.08-25.2-.25-7.46-.11-2,0Z" style="fill:#263238"></path><rect x="142.64" y="253.85" width="4.96" height="8.07" rx="2.43" style="fill:#fff"></rect><path d="M145.18,261.93c0-.05.31,0,.8-.25a2.35,2.35,0,0,0,1.37-1.62,7.93,7.93,0,0,0,0-1.57c0-.59,0-1.21,0-1.86a2.35,2.35,0,0,0-.54-1.75,2.29,2.29,0,0,0-3.47.07,2.27,2.27,0,0,0-.41.84,4,4,0,0,0-.07.94c0,.65,0,1.27,0,1.86a6.43,6.43,0,0,0,.06,1.56,2.42,2.42,0,0,0,1.44,1.57c.5.18.82.16.82.21a1.49,1.49,0,0,1-.88,0,2.51,2.51,0,0,1-1.73-1.66,6,6,0,0,1-.14-1.66q0-.88,0-1.86a4.42,4.42,0,0,1,.07-1.06,2.67,2.67,0,0,1,2.6-2.08,2.72,2.72,0,0,1,2.15,1,2.85,2.85,0,0,1,.63,2.08q0,1,0,1.86a7.6,7.6,0,0,1-.11,1.66,2.49,2.49,0,0,1-1.66,1.72A1.32,1.32,0,0,1,145.18,261.93Z" style="fill:#263238"></path><rect x="150.28" y="253.85" width="4.96" height="8.07" rx="2.43" style="fill:#fff"></rect><path d="M152.81,261.93c0-.05.31,0,.8-.25a2.35,2.35,0,0,0,1.37-1.62,7.93,7.93,0,0,0,0-1.57c0-.59,0-1.21,0-1.86a2.35,2.35,0,0,0-.54-1.75A2.29,2.29,0,0,0,151,255a2.43,2.43,0,0,0-.41.84,4.06,4.06,0,0,0-.06.94q0,1,0,1.86a5.92,5.92,0,0,0,.07,1.56,2.38,2.38,0,0,0,1.43,1.57c.5.18.82.16.82.21a1.48,1.48,0,0,1-.88,0,2.53,2.53,0,0,1-1.73-1.66,6,6,0,0,1-.14-1.66c0-.59,0-1.21,0-1.86a4.38,4.38,0,0,1,.06-1.06,2.67,2.67,0,0,1,2.61-2.08,2.71,2.71,0,0,1,2.14,1,2.85,2.85,0,0,1,.63,2.08q0,1,0,1.86a7.6,7.6,0,0,1-.11,1.66,2.49,2.49,0,0,1-1.66,1.72A1.32,1.32,0,0,1,152.81,261.93Z" style="fill:#263238"></path><rect x="157.91" y="253.85" width="4.96" height="8.07" rx="2.43" style="fill:#fff"></rect><path d="M160.44,261.93c0-.05.32,0,.81-.25a2.36,2.36,0,0,0,1.36-1.62,7.93,7.93,0,0,0,0-1.57c0-.59,0-1.21,0-1.86a2.38,2.38,0,0,0-.53-1.75,2.3,2.3,0,0,0-3.48.07,2.25,2.25,0,0,0-.4.84,3.56,3.56,0,0,0-.07.94q0,1,0,1.86a6.39,6.39,0,0,0,.07,1.56,2.38,2.38,0,0,0,1.43,1.57c.5.18.82.16.82.21a1.48,1.48,0,0,1-.88,0,2.53,2.53,0,0,1-1.73-1.66,6,6,0,0,1-.14-1.66c0-.59,0-1.21,0-1.86a4.38,4.38,0,0,1,.06-1.06,2.75,2.75,0,0,1,4.75-1.12,2.85,2.85,0,0,1,.63,2.08q0,1,0,1.86a7.6,7.6,0,0,1-.11,1.66,2.5,2.5,0,0,1-1.65,1.72A1.35,1.35,0,0,1,160.44,261.93Z" style="fill:#263238"></path><rect x="165.54" y="253.85" width="4.96" height="8.07" rx="2.43" style="fill:#fff"></rect><path d="M168.07,261.93c0-.05.32,0,.81-.25a2.36,2.36,0,0,0,1.36-1.62,7.23,7.23,0,0,0,0-1.57c0-.59,0-1.21,0-1.86a2.38,2.38,0,0,0-.53-1.75,2.19,2.19,0,0,0-1.76-.76,2.15,2.15,0,0,0-1.71.83,2.12,2.12,0,0,0-.41.84,3.56,3.56,0,0,0-.07.94q0,1,0,1.86a6.39,6.39,0,0,0,.07,1.56,2.38,2.38,0,0,0,1.43,1.57c.5.18.82.16.82.21a1.48,1.48,0,0,1-.88,0,2.5,2.5,0,0,1-1.72-1.66,6,6,0,0,1-.15-1.66c0-.59,0-1.21,0-1.86a4.38,4.38,0,0,1,.06-1.06,2.84,2.84,0,0,1,.49-1,2.78,2.78,0,0,1,4.27-.08,2.89,2.89,0,0,1,.62,2.08c0,.65,0,1.27,0,1.86a7.6,7.6,0,0,1-.12,1.66,2.5,2.5,0,0,1-1.65,1.72A1.35,1.35,0,0,1,168.07,261.93Z" style="fill:#263238"></path><rect x="208.14" y="246.57" width="13.22" height="21.51" rx="6.47" style="fill:#fff"></rect><path d="M214.88,268.08a9.74,9.74,0,0,0,2.21-.5,6.55,6.55,0,0,0,2.19-1.43,6.26,6.26,0,0,0,1.69-3,7.67,7.67,0,0,0,.19-2c0-.72,0-1.47,0-2.25,0-1.55,0-3.21,0-5a9,9,0,0,0-.25-2.59,6,6,0,0,0-1.25-2.35,6.36,6.36,0,0,0-11.06,2.6,10.82,10.82,0,0,0-.18,2.61c0,1.74,0,3.4,0,5a16.27,16.27,0,0,0,.24,4.23,6.45,6.45,0,0,0,4.06,4.25,11,11,0,0,0,2.23.41,1.59,1.59,0,0,1-.59,0,6.18,6.18,0,0,1-1.7-.26,6.26,6.26,0,0,1-2.38-1.31,6.64,6.64,0,0,1-2-3,7.2,7.2,0,0,1-.3-2.1c0-.72,0-1.47,0-2.24,0-1.56,0-3.22,0-5a11,11,0,0,1,.17-2.72,6.86,6.86,0,0,1,1.24-2.6,7,7,0,0,1,10.7-.22,6.56,6.56,0,0,1,1.34,2.54,9.21,9.21,0,0,1,.25,2.73c0,1.74,0,3.4,0,5,0,.78,0,1.53,0,2.25a7.65,7.65,0,0,1-.23,2.1,6.51,6.51,0,0,1-4.17,4.51,5.84,5.84,0,0,1-1.68.33A2.15,2.15,0,0,1,214.88,268.08Z" style="fill:#263238"></path><rect x="234.22" y="253.85" width="4.96" height="8.07" rx="2.43" style="fill:#fff"></rect><path d="M236.75,261.93c0-.05.32,0,.81-.25a2.35,2.35,0,0,0,1.37-1.62,7.93,7.93,0,0,0,0-1.57q0-.89,0-1.86a2.38,2.38,0,0,0-.53-1.75,2.29,2.29,0,0,0-3.47.07,2.12,2.12,0,0,0-.41.84,4,4,0,0,0-.07.94c0,.65,0,1.27,0,1.86a6,6,0,0,0,.06,1.56,2.37,2.37,0,0,0,1.44,1.57c.5.18.82.16.81.21a1.44,1.44,0,0,1-.87,0,2.51,2.51,0,0,1-1.73-1.66,5.68,5.68,0,0,1-.14-1.66q0-.88,0-1.86a4.42,4.42,0,0,1,.07-1.06,2.67,2.67,0,0,1,2.6-2.08,2.72,2.72,0,0,1,2.15,1,2.8,2.8,0,0,1,.62,2.08c0,.65,0,1.27,0,1.86a7,7,0,0,1-.12,1.66,2.46,2.46,0,0,1-1.65,1.72A1.35,1.35,0,0,1,236.75,261.93Z" style="fill:#263238"></path><rect x="241.85" y="253.85" width="4.96" height="8.07" rx="2.43" style="fill:#fff"></rect><path d="M244.39,261.93c0-.05.31,0,.8-.25a2.35,2.35,0,0,0,1.37-1.62,7.93,7.93,0,0,0,0-1.57c0-.59,0-1.21,0-1.86a2.39,2.39,0,0,0-.54-1.75,2.29,2.29,0,0,0-3.47.07,2.12,2.12,0,0,0-.41.84,4,4,0,0,0-.07.94c0,.65,0,1.27,0,1.86a6.43,6.43,0,0,0,.06,1.56,2.42,2.42,0,0,0,1.44,1.57c.5.18.82.16.82.21a1.49,1.49,0,0,1-.88,0,2.51,2.51,0,0,1-1.73-1.66,6,6,0,0,1-.14-1.66q0-.88,0-1.86a4.42,4.42,0,0,1,.07-1.06,2.67,2.67,0,0,1,2.6-2.08,2.72,2.72,0,0,1,2.15,1,2.85,2.85,0,0,1,.63,2.08q0,1,0,1.86a7.6,7.6,0,0,1-.11,1.66,2.49,2.49,0,0,1-1.66,1.72A1.32,1.32,0,0,1,244.39,261.93Z" style="fill:#263238"></path><rect x="249.49" y="253.85" width="4.96" height="8.07" rx="2.43" style="fill:#fff"></rect><path d="M252,261.93c0-.05.31,0,.8-.25a2.35,2.35,0,0,0,1.37-1.62,7.93,7.93,0,0,0,0-1.57c0-.59,0-1.21,0-1.86a2.35,2.35,0,0,0-.54-1.75,2.29,2.29,0,0,0-3.47.07,2.27,2.27,0,0,0-.41.84,4.06,4.06,0,0,0-.06.94q0,1,0,1.86a5.92,5.92,0,0,0,.07,1.56,2.38,2.38,0,0,0,1.43,1.57c.5.18.82.16.82.21a1.48,1.48,0,0,1-.88,0,2.53,2.53,0,0,1-1.73-1.66,6,6,0,0,1-.14-1.66c0-.59,0-1.21,0-1.86a4.38,4.38,0,0,1,.06-1.06,2.67,2.67,0,0,1,2.61-2.08,2.71,2.71,0,0,1,2.14,1,2.85,2.85,0,0,1,.63,2.08q0,1,0,1.86a7.6,7.6,0,0,1-.11,1.66,2.49,2.49,0,0,1-1.66,1.72A1.32,1.32,0,0,1,252,261.93Z" style="fill:#263238"></path><rect x="257.12" y="253.85" width="4.96" height="8.07" rx="2.43" style="fill:#fff"></rect><path d="M259.65,261.93c0-.05.31,0,.81-.25a2.36,2.36,0,0,0,1.36-1.62,7.93,7.93,0,0,0,0-1.57c0-.59,0-1.21,0-1.86a2.35,2.35,0,0,0-.54-1.75,2.16,2.16,0,0,0-1.75-.76,2.19,2.19,0,0,0-1.72.83,2.25,2.25,0,0,0-.4.84,3.56,3.56,0,0,0-.07.94q0,1,0,1.86a6.39,6.39,0,0,0,.07,1.56,2.38,2.38,0,0,0,1.43,1.57c.5.18.82.16.82.21a1.48,1.48,0,0,1-.88,0,2.53,2.53,0,0,1-1.73-1.66,6,6,0,0,1-.14-1.66c0-.59,0-1.21,0-1.86a4.38,4.38,0,0,1,.06-1.06,2.75,2.75,0,0,1,4.75-1.12,2.85,2.85,0,0,1,.63,2.08q0,1,0,1.86a7.6,7.6,0,0,1-.11,1.66,2.5,2.5,0,0,1-1.65,1.72A1.35,1.35,0,0,1,259.65,261.93Z" style="fill:#263238"></path><rect x="264.75" y="253.85" width="4.96" height="8.07" rx="2.43" style="fill:#fff"></rect><path d="M267.28,261.93c0-.05.32,0,.81-.25a2.36,2.36,0,0,0,1.36-1.62,7.23,7.23,0,0,0,0-1.57c0-.59,0-1.21,0-1.86a2.38,2.38,0,0,0-.53-1.75,2.19,2.19,0,0,0-1.76-.76,2.15,2.15,0,0,0-1.71.83,2.12,2.12,0,0,0-.41.84,3.56,3.56,0,0,0-.07.94q0,1,0,1.86a6.39,6.39,0,0,0,.07,1.56,2.38,2.38,0,0,0,1.43,1.57c.5.18.82.16.82.21a1.48,1.48,0,0,1-.88,0,2.5,2.5,0,0,1-1.72-1.66,6,6,0,0,1-.15-1.66c0-.59,0-1.21,0-1.86a4.38,4.38,0,0,1,.06-1.06,2.84,2.84,0,0,1,.49-1,2.78,2.78,0,0,1,4.27-.08,2.89,2.89,0,0,1,.62,2.08c0,.65,0,1.27,0,1.86a7.6,7.6,0,0,1-.12,1.66,2.5,2.5,0,0,1-1.65,1.72A1.35,1.35,0,0,1,267.28,261.93Z" style="fill:#263238"></path><rect x="272.38" y="253.85" width="4.96" height="8.07" rx="2.43" style="fill:#fff"></rect><path d="M274.91,261.93c0-.05.32,0,.81-.25a2.36,2.36,0,0,0,1.36-1.62,7.86,7.86,0,0,0,.05-1.57q0-.89,0-1.86a2.38,2.38,0,0,0-.53-1.75,2.19,2.19,0,0,0-1.76-.76,2.17,2.17,0,0,0-1.71.83,2.12,2.12,0,0,0-.41.84,4,4,0,0,0-.07.94c0,.65,0,1.27,0,1.86a6,6,0,0,0,.06,1.56,2.38,2.38,0,0,0,1.43,1.57c.51.18.82.16.82.21a1.46,1.46,0,0,1-.88,0,2.5,2.5,0,0,1-1.72-1.66,6,6,0,0,1-.15-1.66c0-.59,0-1.21,0-1.86a4.38,4.38,0,0,1,.06-1.06,2.84,2.84,0,0,1,.49-1,2.78,2.78,0,0,1,4.27-.08,2.89,2.89,0,0,1,.62,2.08c0,.65,0,1.27,0,1.86a7.6,7.6,0,0,1-.12,1.66,2.48,2.48,0,0,1-1.65,1.72A1.35,1.35,0,0,1,274.91,261.93Z" style="fill:#263238"></path><rect x="280.01" y="253.85" width="4.96" height="8.07" rx="2.43" style="fill:#fff"></rect><path d="M282.54,261.93c0-.05.32,0,.81-.25a2.35,2.35,0,0,0,1.37-1.62,7.93,7.93,0,0,0,0-1.57q0-.89,0-1.86a2.38,2.38,0,0,0-.53-1.75,2.19,2.19,0,0,0-1.76-.76,2.17,2.17,0,0,0-1.71.83,2.12,2.12,0,0,0-.41.84,4,4,0,0,0-.07.94c0,.65,0,1.27,0,1.86a6,6,0,0,0,.06,1.56,2.37,2.37,0,0,0,1.44,1.57c.5.18.82.16.81.21a1.46,1.46,0,0,1-.88,0,2.5,2.5,0,0,1-1.72-1.66,5.68,5.68,0,0,1-.14-1.66q0-.88,0-1.86a4.42,4.42,0,0,1,.07-1.06,2.67,2.67,0,0,1,2.6-2.08,2.72,2.72,0,0,1,2.15,1,2.8,2.8,0,0,1,.62,2.08c0,.65,0,1.27,0,1.86a7,7,0,0,1-.12,1.66,2.48,2.48,0,0,1-1.65,1.72A1.35,1.35,0,0,1,282.54,261.93Z" style="fill:#263238"></path><rect x="287.64" y="253.85" width="4.96" height="8.07" rx="2.43" style="fill:#fff"></rect><path d="M290.17,261.93c0-.05.32,0,.81-.25a2.35,2.35,0,0,0,1.37-1.62,7.93,7.93,0,0,0,0-1.57q0-.89,0-1.86a2.38,2.38,0,0,0-.53-1.75,2.29,2.29,0,0,0-3.47.07,2.12,2.12,0,0,0-.41.84,4,4,0,0,0-.07.94c0,.65,0,1.27,0,1.86a6,6,0,0,0,.06,1.56,2.37,2.37,0,0,0,1.44,1.57c.5.18.82.16.81.21a1.44,1.44,0,0,1-.87,0,2.51,2.51,0,0,1-1.73-1.66,5.68,5.68,0,0,1-.14-1.66q0-.88,0-1.86a4.42,4.42,0,0,1,.07-1.06,2.67,2.67,0,0,1,2.6-2.08,2.72,2.72,0,0,1,2.15,1,2.8,2.8,0,0,1,.62,2.08c0,.65,0,1.27,0,1.86a7,7,0,0,1-.12,1.66,2.46,2.46,0,0,1-1.65,1.72A1.35,1.35,0,0,1,290.17,261.93Z" style="fill:#263238"></path><rect x="295.27" y="253.85" width="4.96" height="8.07" rx="2.43" style="fill:#fff"></rect><path d="M297.81,261.93c0-.05.31,0,.8-.25a2.35,2.35,0,0,0,1.37-1.62,7.93,7.93,0,0,0,0-1.57c0-.59,0-1.21,0-1.86a2.35,2.35,0,0,0-.54-1.75A2.29,2.29,0,0,0,296,255a2.27,2.27,0,0,0-.41.84,4.67,4.67,0,0,0-.07.94c0,.65,0,1.27,0,1.86a6.43,6.43,0,0,0,.06,1.56,2.42,2.42,0,0,0,1.44,1.57c.5.18.82.16.82.21a1.49,1.49,0,0,1-.88,0,2.51,2.51,0,0,1-1.73-1.66,6,6,0,0,1-.14-1.66q0-.88,0-1.86a4.42,4.42,0,0,1,.07-1.06,2.67,2.67,0,0,1,2.6-2.08,2.72,2.72,0,0,1,2.15,1,2.85,2.85,0,0,1,.63,2.08q0,1,0,1.86a7.6,7.6,0,0,1-.11,1.66,2.49,2.49,0,0,1-1.66,1.72A1.32,1.32,0,0,1,297.81,261.93Z" style="fill:#263238"></path><rect x="302.91" y="253.85" width="4.96" height="8.07" rx="2.43" style="fill:#fff"></rect><path d="M305.44,261.93c0-.05.31,0,.8-.25a2.35,2.35,0,0,0,1.37-1.62,7.93,7.93,0,0,0,0-1.57c0-.59,0-1.21,0-1.86a2.35,2.35,0,0,0-.54-1.75,2.29,2.29,0,0,0-3.47.07,2.43,2.43,0,0,0-.41.84,4.06,4.06,0,0,0-.06.94q0,1,0,1.86a5.92,5.92,0,0,0,.07,1.56,2.38,2.38,0,0,0,1.43,1.57c.5.18.82.16.82.21a1.48,1.48,0,0,1-.88,0,2.53,2.53,0,0,1-1.73-1.66,6,6,0,0,1-.14-1.66c0-.59,0-1.21,0-1.86a4.38,4.38,0,0,1,.06-1.06,2.75,2.75,0,0,1,4.75-1.12,2.85,2.85,0,0,1,.63,2.08q0,1,0,1.86a7.6,7.6,0,0,1-.11,1.66,2.49,2.49,0,0,1-1.66,1.72A1.32,1.32,0,0,1,305.44,261.93Z" style="fill:#263238"></path><rect x="316.56" y="247.62" width="12.62" height="20.54" rx="6.12" style="fill:#fff"></rect><path d="M323.06,268.16a8.55,8.55,0,0,0,2.11-.49,6.12,6.12,0,0,0,2.09-1.38,6,6,0,0,0,1.57-2.86,7.53,7.53,0,0,0,.15-1.93c0-.69,0-1.41,0-2.15q0-2.24,0-4.74a8.2,8.2,0,0,0-.23-2.47,5.68,5.68,0,0,0-1.22-2.23,6,6,0,0,0-2.12-1.56,6.32,6.32,0,0,0-2.68-.47,5.92,5.92,0,0,0-5.74,4.61,11.56,11.56,0,0,0-.15,2.5c0,1.67,0,3.25,0,4.74a15.39,15.39,0,0,0,.22,4,6.08,6.08,0,0,0,1.76,2.76,5.92,5.92,0,0,0,2.16,1.26,10.89,10.89,0,0,0,2.14.36,1.57,1.57,0,0,1-.57,0,6.12,6.12,0,0,1-1.63-.22,6,6,0,0,1-2.29-1.23,6.25,6.25,0,0,1-1.92-2.87,7.28,7.28,0,0,1-.29-2c0-.69,0-1.41,0-2.15,0-1.49,0-3.07,0-4.74a11.71,11.71,0,0,1,.14-2.61,6.4,6.4,0,0,1,6.23-5,6.76,6.76,0,0,1,2.88.52,6.53,6.53,0,0,1,2.31,1.69,6.4,6.4,0,0,1,1.31,2.43,9.09,9.09,0,0,1,.23,2.61c0,1.67,0,3.25,0,4.74,0,.74,0,1.46,0,2.15a7.38,7.38,0,0,1-.19,2,6.28,6.28,0,0,1-1.73,3,6.08,6.08,0,0,1-2.22,1.36,5.76,5.76,0,0,1-1.61.33A2.06,2.06,0,0,1,323.06,268.16Z" style="fill:#263238"></path><rect x="341.06" y="253.85" width="4.96" height="8.07" rx="2.43" style="fill:#fff"></rect><path d="M343.6,261.93c0-.05.31,0,.8-.25a2.35,2.35,0,0,0,1.37-1.62,7.93,7.93,0,0,0,0-1.57c0-.59,0-1.21,0-1.86a2.43,2.43,0,0,0-.54-1.75,2.29,2.29,0,0,0-3.47.07,2.12,2.12,0,0,0-.41.84,4,4,0,0,0-.07.94c0,.65,0,1.27,0,1.86a6.43,6.43,0,0,0,.06,1.56,2.42,2.42,0,0,0,1.44,1.57c.5.18.82.16.82.21a1.49,1.49,0,0,1-.88,0,2.51,2.51,0,0,1-1.73-1.66,6,6,0,0,1-.14-1.66q0-.88,0-1.86a4.42,4.42,0,0,1,.07-1.06,2.67,2.67,0,0,1,2.6-2.08,2.72,2.72,0,0,1,2.15,1,2.85,2.85,0,0,1,.63,2.08q0,1,0,1.86a7.6,7.6,0,0,1-.11,1.66,2.49,2.49,0,0,1-1.66,1.72A1.31,1.31,0,0,1,343.6,261.93Z" style="fill:#263238"></path><rect x="348.7" y="253.85" width="4.96" height="8.07" rx="2.43" style="fill:#fff"></rect><path d="M351.23,261.93c0-.05.31,0,.8-.25a2.35,2.35,0,0,0,1.37-1.62,7.93,7.93,0,0,0,0-1.57c0-.59,0-1.21,0-1.86a2.35,2.35,0,0,0-.54-1.75,2.29,2.29,0,0,0-3.47.07,2.27,2.27,0,0,0-.41.84,4.67,4.67,0,0,0-.07.94c0,.65,0,1.27,0,1.86a5.92,5.92,0,0,0,.07,1.56,2.38,2.38,0,0,0,1.43,1.57c.5.18.82.16.82.21a1.49,1.49,0,0,1-.88,0,2.53,2.53,0,0,1-1.73-1.66,6,6,0,0,1-.14-1.66c0-.59,0-1.21,0-1.86a4.38,4.38,0,0,1,.06-1.06,2.67,2.67,0,0,1,2.61-2.08,2.71,2.71,0,0,1,2.14,1,2.85,2.85,0,0,1,.63,2.08q0,1,0,1.86a7.6,7.6,0,0,1-.11,1.66,2.49,2.49,0,0,1-1.66,1.72A1.32,1.32,0,0,1,351.23,261.93Z" style="fill:#263238"></path><rect x="356.33" y="253.85" width="4.96" height="8.07" rx="2.43" style="fill:#fff"></rect><path d="M358.86,261.93c0-.05.31,0,.81-.25a2.36,2.36,0,0,0,1.36-1.62,7.93,7.93,0,0,0,0-1.57c0-.59,0-1.21,0-1.86a2.35,2.35,0,0,0-.54-1.75A2.29,2.29,0,0,0,357,255a2.43,2.43,0,0,0-.41.84,4.06,4.06,0,0,0-.06.94q0,1,0,1.86a5.92,5.92,0,0,0,.07,1.56,2.38,2.38,0,0,0,1.43,1.57c.5.18.82.16.82.21a1.48,1.48,0,0,1-.88,0,2.53,2.53,0,0,1-1.73-1.66,6,6,0,0,1-.14-1.66c0-.59,0-1.21,0-1.86a4.38,4.38,0,0,1,.06-1.06,2.75,2.75,0,0,1,4.75-1.12,2.85,2.85,0,0,1,.63,2.08q0,1,0,1.86a7.6,7.6,0,0,1-.11,1.66,2.5,2.5,0,0,1-1.65,1.72A1.35,1.35,0,0,1,358.86,261.93Z" style="fill:#263238"></path><rect x="363.96" y="253.85" width="4.96" height="8.07" rx="2.43" style="fill:#fff"></rect><path d="M366.49,261.93c0-.05.32,0,.81-.25a2.36,2.36,0,0,0,1.36-1.62,7.23,7.23,0,0,0,0-1.57c0-.59,0-1.21,0-1.86a2.38,2.38,0,0,0-.53-1.75,2.3,2.3,0,0,0-3.48.07,2.25,2.25,0,0,0-.4.84,3.56,3.56,0,0,0-.07.94q0,1,0,1.86a6.39,6.39,0,0,0,.07,1.56,2.38,2.38,0,0,0,1.43,1.57c.5.18.82.16.82.21a1.48,1.48,0,0,1-.88,0,2.5,2.5,0,0,1-1.72-1.66,6,6,0,0,1-.15-1.66c0-.59,0-1.21,0-1.86a4.38,4.38,0,0,1,.06-1.06,2.84,2.84,0,0,1,.49-1,2.77,2.77,0,0,1,4.26-.08,2.85,2.85,0,0,1,.63,2.08c0,.65,0,1.27,0,1.86a7.6,7.6,0,0,1-.12,1.66,2.5,2.5,0,0,1-1.65,1.72A1.35,1.35,0,0,1,366.49,261.93Z" style="fill:#263238"></path><rect x="371.59" y="253.85" width="4.96" height="8.07" rx="2.43" style="fill:#fff"></rect><path d="M374.12,261.93c0-.05.32,0,.81-.25a2.36,2.36,0,0,0,1.36-1.62,7.86,7.86,0,0,0,0-1.57q0-.89,0-1.86a2.38,2.38,0,0,0-.53-1.75,2.19,2.19,0,0,0-1.76-.76,2.17,2.17,0,0,0-1.71.83,2.12,2.12,0,0,0-.41.84,4,4,0,0,0-.07.94c0,.65,0,1.27,0,1.86a6,6,0,0,0,.06,1.56,2.38,2.38,0,0,0,1.43,1.57c.51.18.82.16.82.21a1.46,1.46,0,0,1-.88,0,2.5,2.5,0,0,1-1.72-1.66,6,6,0,0,1-.15-1.66c0-.59,0-1.21,0-1.86a4.38,4.38,0,0,1,.06-1.06,2.84,2.84,0,0,1,.49-1,2.78,2.78,0,0,1,4.27-.08,2.89,2.89,0,0,1,.62,2.08c0,.65,0,1.27,0,1.86a7.6,7.6,0,0,1-.12,1.66,2.48,2.48,0,0,1-1.65,1.72A1.35,1.35,0,0,1,374.12,261.93Z" style="fill:#263238"></path><rect x="379.22" y="253.85" width="4.96" height="8.07" rx="2.43" style="fill:#fff"></rect><path d="M381.75,261.93c0-.05.32,0,.81-.25a2.35,2.35,0,0,0,1.37-1.62,7.93,7.93,0,0,0,0-1.57q0-.89,0-1.86a2.38,2.38,0,0,0-.53-1.75,2.19,2.19,0,0,0-1.76-.76,2.17,2.17,0,0,0-1.71.83,2.12,2.12,0,0,0-.41.84,4,4,0,0,0-.07.94c0,.65,0,1.27,0,1.86a6,6,0,0,0,.06,1.56,2.37,2.37,0,0,0,1.44,1.57c.5.18.82.16.81.21a1.46,1.46,0,0,1-.88,0,2.5,2.5,0,0,1-1.72-1.66,5.68,5.68,0,0,1-.14-1.66q0-.88,0-1.86a4.38,4.38,0,0,1,.06-1.06,2.86,2.86,0,0,1,.5-1,2.67,2.67,0,0,1,2.11-1,2.72,2.72,0,0,1,2.15,1,2.84,2.84,0,0,1,.62,2.08c0,.65,0,1.27,0,1.86a7,7,0,0,1-.12,1.66,2.48,2.48,0,0,1-1.65,1.72A1.35,1.35,0,0,1,381.75,261.93Z" style="fill:#263238"></path><rect x="386.85" y="253.85" width="4.96" height="8.07" rx="2.43" style="fill:#fff"></rect><path d="M389.38,261.93c0-.05.32,0,.81-.25a2.35,2.35,0,0,0,1.37-1.62,7.93,7.93,0,0,0,0-1.57q0-.89,0-1.86a2.38,2.38,0,0,0-.53-1.75,2.29,2.29,0,0,0-3.47.07,2.12,2.12,0,0,0-.41.84,4,4,0,0,0-.07.94c0,.65,0,1.27,0,1.86a6,6,0,0,0,.06,1.56,2.37,2.37,0,0,0,1.44,1.57c.5.18.82.16.81.21a1.44,1.44,0,0,1-.87,0,2.51,2.51,0,0,1-1.73-1.66,5.68,5.68,0,0,1-.14-1.66q0-.88,0-1.86a4.42,4.42,0,0,1,.07-1.06,2.67,2.67,0,0,1,2.6-2.08,2.72,2.72,0,0,1,2.15,1,2.8,2.8,0,0,1,.62,2.08c0,.65,0,1.27,0,1.86a7,7,0,0,1-.12,1.66,2.46,2.46,0,0,1-1.65,1.72A1.35,1.35,0,0,1,389.38,261.93Z" style="fill:#263238"></path><rect x="394.48" y="253.85" width="4.96" height="8.07" rx="2.43" style="fill:#fff"></rect><path d="M397,261.93c0-.05.31,0,.8-.25a2.35,2.35,0,0,0,1.37-1.62,7.93,7.93,0,0,0,0-1.57c0-.59,0-1.21,0-1.86a2.39,2.39,0,0,0-.54-1.75,2.29,2.29,0,0,0-3.47.07,2.12,2.12,0,0,0-.41.84,4,4,0,0,0-.07.94c0,.65,0,1.27,0,1.86a6.43,6.43,0,0,0,.06,1.56,2.42,2.42,0,0,0,1.44,1.57c.5.18.82.16.82.21a1.49,1.49,0,0,1-.88,0,2.51,2.51,0,0,1-1.73-1.66,6,6,0,0,1-.14-1.66q0-.88,0-1.86a4.42,4.42,0,0,1,.07-1.06,2.67,2.67,0,0,1,2.6-2.08,2.72,2.72,0,0,1,2.15,1,2.85,2.85,0,0,1,.63,2.08q0,1,0,1.86a7.6,7.6,0,0,1-.11,1.66,2.49,2.49,0,0,1-1.66,1.72A1.32,1.32,0,0,1,397,261.93Z" style="fill:#263238"></path><rect x="404.88" y="253.85" width="4.96" height="8.07" rx="2.43" style="fill:#fff"></rect><path d="M407.41,261.93c0-.05.32,0,.81-.25a2.35,2.35,0,0,0,1.37-1.62,7.93,7.93,0,0,0,0-1.57q0-.89,0-1.86a2.38,2.38,0,0,0-.53-1.75,2.29,2.29,0,0,0-3.47.07,2.12,2.12,0,0,0-.41.84,4,4,0,0,0-.07.94c0,.65,0,1.27,0,1.86a6,6,0,0,0,.06,1.56,2.37,2.37,0,0,0,1.44,1.57c.5.18.82.16.81.21a1.44,1.44,0,0,1-.87,0,2.51,2.51,0,0,1-1.73-1.66,5.68,5.68,0,0,1-.14-1.66q0-.88,0-1.86a4.42,4.42,0,0,1,.07-1.06,2.67,2.67,0,0,1,2.6-2.08,2.72,2.72,0,0,1,2.15,1,2.8,2.8,0,0,1,.62,2.08c0,.65,0,1.27,0,1.86a7,7,0,0,1-.12,1.66,2.46,2.46,0,0,1-1.65,1.72A1.35,1.35,0,0,1,407.41,261.93Z" style="fill:#263238"></path><rect x="412.51" y="253.85" width="4.96" height="8.07" rx="2.43" style="fill:#fff"></rect><path d="M415.05,261.93c0-.05.31,0,.8-.25a2.35,2.35,0,0,0,1.37-1.62,7.93,7.93,0,0,0,0-1.57c0-.59,0-1.21,0-1.86a2.35,2.35,0,0,0-.54-1.75,2.29,2.29,0,0,0-3.47.07,2.27,2.27,0,0,0-.41.84,4,4,0,0,0-.07.94c0,.65,0,1.27,0,1.86a6.43,6.43,0,0,0,.06,1.56,2.42,2.42,0,0,0,1.44,1.57c.5.18.82.16.82.21a1.49,1.49,0,0,1-.88,0,2.51,2.51,0,0,1-1.73-1.66,6,6,0,0,1-.14-1.66q0-.88,0-1.86a4.42,4.42,0,0,1,.07-1.06,2.67,2.67,0,0,1,2.6-2.08,2.72,2.72,0,0,1,2.15,1,2.85,2.85,0,0,1,.63,2.08q0,1,0,1.86a7.6,7.6,0,0,1-.11,1.66,2.49,2.49,0,0,1-1.66,1.72A1.32,1.32,0,0,1,415.05,261.93Z" style="fill:#263238"></path><rect x="420.15" y="253.85" width="4.96" height="8.07" rx="2.43" style="fill:#fff"></rect><path d="M422.68,261.93c0-.05.31,0,.8-.25a2.35,2.35,0,0,0,1.37-1.62,7.93,7.93,0,0,0,0-1.57c0-.59,0-1.21,0-1.86a2.35,2.35,0,0,0-.54-1.75,2.29,2.29,0,0,0-3.47.07,2.43,2.43,0,0,0-.41.84,4.06,4.06,0,0,0-.06.94q0,1,0,1.86a5.92,5.92,0,0,0,.07,1.56,2.38,2.38,0,0,0,1.43,1.57c.5.18.82.16.82.21a1.48,1.48,0,0,1-.88,0,2.53,2.53,0,0,1-1.73-1.66,6,6,0,0,1-.14-1.66c0-.59,0-1.21,0-1.86a4.38,4.38,0,0,1,.06-1.06,2.67,2.67,0,0,1,2.61-2.08,2.71,2.71,0,0,1,2.14,1,2.85,2.85,0,0,1,.63,2.08q0,1,0,1.86a7.6,7.6,0,0,1-.11,1.66,2.49,2.49,0,0,1-1.66,1.72A1.32,1.32,0,0,1,422.68,261.93Z" style="fill:#263238"></path><rect x="427.78" y="253.85" width="4.96" height="8.07" rx="2.43" style="fill:#fff"></rect><path d="M430.31,261.93c0-.05.32,0,.81-.25a2.36,2.36,0,0,0,1.36-1.62,7.93,7.93,0,0,0,0-1.57c0-.59,0-1.21,0-1.86a2.38,2.38,0,0,0-.53-1.75,2.3,2.3,0,0,0-3.48.07,2.25,2.25,0,0,0-.4.84,3.56,3.56,0,0,0-.07.94q0,1,0,1.86a6.39,6.39,0,0,0,.07,1.56,2.38,2.38,0,0,0,1.43,1.57c.5.18.82.16.82.21a1.48,1.48,0,0,1-.88,0,2.53,2.53,0,0,1-1.73-1.66,6,6,0,0,1-.14-1.66c0-.59,0-1.21,0-1.86a4.38,4.38,0,0,1,.06-1.06,2.75,2.75,0,0,1,4.75-1.12,2.85,2.85,0,0,1,.63,2.08q0,1,0,1.86a7.6,7.6,0,0,1-.11,1.66,2.5,2.5,0,0,1-1.65,1.72A1.35,1.35,0,0,1,430.31,261.93Z" style="fill:#263238"></path><rect x="435.41" y="253.85" width="4.96" height="8.07" rx="2.43" style="fill:#fff"></rect><path d="M437.94,261.93c0-.05.32,0,.81-.25a2.36,2.36,0,0,0,1.36-1.62,7.23,7.23,0,0,0,0-1.57c0-.59,0-1.21,0-1.86a2.38,2.38,0,0,0-.53-1.75,2.19,2.19,0,0,0-1.76-.76,2.17,2.17,0,0,0-1.71.83,2.12,2.12,0,0,0-.41.84,3.56,3.56,0,0,0-.07.94q0,1,0,1.86a6.39,6.39,0,0,0,.07,1.56,2.38,2.38,0,0,0,1.43,1.57c.5.18.82.16.82.21a1.48,1.48,0,0,1-.88,0,2.5,2.5,0,0,1-1.72-1.66,6,6,0,0,1-.15-1.66c0-.59,0-1.21,0-1.86a4.38,4.38,0,0,1,.06-1.06,2.84,2.84,0,0,1,.49-1,2.78,2.78,0,0,1,4.27-.08,2.89,2.89,0,0,1,.62,2.08c0,.65,0,1.27,0,1.86a7.6,7.6,0,0,1-.12,1.66,2.5,2.5,0,0,1-1.65,1.72A1.35,1.35,0,0,1,437.94,261.93Z" style="fill:#263238"></path><path d="M67.07,217l23.47,31.65,40.8.33S90.54,222.4,83.45,219.3,67.07,217,67.07,217Z" style="fill:#E1A860"></path><path d="M528.27,283.67c0,.15-85.48.61-190.9,1s-190.93.64-190.93.5,85.46-.61,190.92-1S528.27,283.53,528.27,283.67Z" style="fill:#263238"></path><path d="M252.72,275.91a14.8,14.8,0,0,0-15.12,14.83A15.24,15.24,0,0,0,252.84,306H281.2V276.12Z" style="fill:#e0e0e0"></path><path d="M252.72,275.91a3.28,3.28,0,0,1,.51,0l1.5,0,5.74,0,20.74.07h.21v.21c0,8.57,0,18.78,0,29.86v.26H258.92c-2.19,0-4.33,0-6.44,0a15.25,15.25,0,0,1-6.06-1.4,15.56,15.56,0,0,1-7.85-8.13,15.27,15.27,0,0,1-1.13-5.09,14.37,14.37,0,0,1,.5-4.77,13.81,13.81,0,0,1,1.74-4,15.6,15.6,0,0,1,1.18-1.64,16.84,16.84,0,0,1,1.31-1.35,15.35,15.35,0,0,1,7.53-3.71c.65-.08,1.2-.18,1.65-.2l1,0a1.88,1.88,0,0,1,.35,0l-.35,0-1,.08c-.45,0-1,.15-1.63.24a16.6,16.6,0,0,0-2.16.61,15,15,0,0,0-5.2,3.16,18.14,18.14,0,0,0-1.27,1.34A16,16,0,0,0,240,283a13.72,13.72,0,0,0-1.67,3.92,14.55,14.55,0,0,0-.45,4.66,15,15,0,0,0,1.13,4.95,15.2,15.2,0,0,0,7.65,7.86,14.83,14.83,0,0,0,5.87,1.33c2.09,0,4.25,0,6.43,0H281.2L281,306c0-11.08,0-21.29,0-29.86l.21.21-20.73-.24-5.74-.1-1.5-.05Z" style="fill:#263238"></path><path d="M296.86,290.74a15.24,15.24,0,0,1-30.48,0c0-8.41,6.83-14.57,15.24-14.57S296.86,282.33,296.86,290.74Z" style="fill:#fafafa"></path><path d="M296.86,290.74a25.32,25.32,0,0,0-.58-3.66,14,14,0,0,0-5.72-8,15,15,0,0,0-6.4-2.48,16.35,16.35,0,0,0-7.83.7,14.16,14.16,0,0,0-9.05,9.17,15.1,15.1,0,0,0-.61,4.7,14.95,14.95,0,0,0,3.09,8.7,14.91,14.91,0,0,0,7,5.05,15,15,0,0,0,14.07-2.29,15.08,15.08,0,0,0,3.79-4.24,14.8,14.8,0,0,0,1.67-4,25.73,25.73,0,0,0,.57-3.67,1,1,0,0,1,0,.25c0,.19,0,.43,0,.72a6.61,6.61,0,0,1-.09,1.17,10.93,10.93,0,0,1-.28,1.57,14.35,14.35,0,0,1-1.62,4.08,15,15,0,0,1-3.81,4.39,15.4,15.4,0,0,1-21.7-2.74,14.6,14.6,0,0,1-2.3-4.17,15.54,15.54,0,0,1-.27-9.69,14.56,14.56,0,0,1,2.16-4.25,14.93,14.93,0,0,1,7.22-5.22,16.66,16.66,0,0,1,8.06-.68,15.4,15.4,0,0,1,6.54,2.61,14.26,14.26,0,0,1,4,4.21,13.3,13.3,0,0,1,1.7,4,9.92,9.92,0,0,1,.29,1.58,6.61,6.61,0,0,1,.09,1.17c0,.29,0,.52,0,.72A.87.87,0,0,1,296.86,290.74Z" style="fill:#263238"></path><circle cx="282.17" cy="290.74" r="8.15" style="fill:#263238"></circle><path d="M266.29,288.44c0,.15-6.36.27-14.21.27s-14.22-.12-14.22-.27,6.36-.26,14.22-.26S266.29,288.3,266.29,288.44Z" style="fill:#263238"></path><path d="M242.81,290.17c0-.06.25-.23.6,0a.76.76,0,0,1-.27,1.37.8.8,0,0,1-.89-.28.81.81,0,0,1-.07-.73c.17-.4.49-.41.49-.34s-.12.19-.14.44.14.51.47.41.32-.39.16-.6S242.83,290.24,242.81,290.17Z" style="fill:#263238"></path><path d="M250.77,290.17c0-.06.24-.23.6,0a.77.77,0,0,1-.27,1.37.76.76,0,0,1-1-1c.17-.4.5-.41.5-.34s-.13.19-.14.44.14.51.46.41.32-.39.17-.6S250.78,290.24,250.77,290.17Z" style="fill:#263238"></path><path d="M258.72,290.17c0-.06.25-.23.6,0a.82.82,0,0,1,.33.66.84.84,0,0,1-1.49.43.75.75,0,0,1-.07-.73c.16-.4.49-.41.49-.34s-.13.19-.14.44.14.51.46.41.33-.39.17-.6S258.73,290.24,258.72,290.17Z" style="fill:#263238"></path><path d="M289.76,291.24l-6.76-.45,6.77-.05c3.74,0,6.77.19,6.76.46S293.49,291.49,289.76,291.24Z" style="fill:#263238"></path><path d="M289.23,293.68l-6.31-2.48,6.47,2c3.57,1.11,6.4,2.22,6.31,2.48S292.7,295.05,289.23,293.68Z" style="fill:#263238"></path><path d="M288,295.84l-5.26-4.27,5.56,3.87c3.07,2.14,5.42,4.05,5.26,4.27S290.88,298.19,288,295.84Z" style="fill:#263238"></path><path d="M286.15,297.52c-2.06-3.11-3.64-5.5-3.73-5.65.1.14,1.86,2.41,4.13,5.36s3.95,5.5,3.73,5.66S288.21,300.64,286.15,297.52Z" style="fill:#263238"></path><path d="M283.89,298.57c-1-3.58-1.8-6.34-1.84-6.52l2.31,6.37c1.28,3.51,2.11,6.43,1.84,6.52S284.91,302.17,283.89,298.57Z" style="fill:#263238"></path><path d="M281.42,298.89c.11-3.72.2-6.59.21-6.77,0,.18.13,3,.29,6.77s.05,6.77-.22,6.77S281.3,302.63,281.42,298.89Z" style="fill:#263238"></path><path d="M279,298.45l2.25-6.39c0,.17-.8,2.94-1.77,6.54s-2,6.47-2.25,6.39S277.72,302,279,298.45Z" style="fill:#263238"></path><path d="M276.76,297.28l4.08-5.41-3.67,5.7c-2,3.14-3.86,5.56-4.09,5.4S274.51,300.27,276.76,297.28Z" style="fill:#263238"></path><path d="M275,295.51l5.52-3.93-5.22,4.32c-2.88,2.39-5.35,4.15-5.51,3.93S272,297.68,275,295.51Z" style="fill:#263238"></path><path d="M273.88,293.29l6.45-2.08-6.28,2.55c-3.47,1.4-6.36,2.33-6.45,2.07S270.32,294.44,273.88,293.29Z" style="fill:#263238"></path><path d="M273.47,290.83l6.78,0-6.76.53c-3.72.28-6.76.3-6.77,0S269.73,290.85,273.47,290.83Z" style="fill:#263238"></path><path d="M273.82,288.36l6.47,2-6.6-1.54c-3.64-.84-6.53-1.75-6.46-2S270.26,287.25,273.82,288.36Z" style="fill:#263238"></path><path d="M274.91,286.12l5.55,3.88-5.82-3.46c-3.21-1.91-5.7-3.65-5.55-3.88S271.85,284,274.91,286.12Z" style="fill:#263238"></path><path d="M276.62,284.31l4.13,5.37-4.52-5.05c-2.48-2.79-4.33-5.2-4.12-5.37S274.34,281.35,276.62,284.31Z" style="fill:#263238"></path><path d="M278.8,283.1l2.31,6.37-2.78-6.19c-1.53-3.41-2.56-6.26-2.31-6.36S277.52,279.58,278.8,283.1Z" style="fill:#263238"></path><path d="M281.24,282.6c.15,3.73.26,6.59.27,6.77,0-.17-.35-3-.77-6.73s-.54-6.75-.27-6.77S281.08,278.87,281.24,282.6Z" style="fill:#263238"></path><path d="M283.72,282.86c-1,3.6-1.73,6.37-1.78,6.54,0-.17.58-3,1.29-6.65s1.51-6.6,1.77-6.53S284.69,279.26,283.72,282.86Z" style="fill:#263238"></path><path d="M286,283.87l-3.68,5.69c.08-.16,1.46-2.68,3.25-5.95s3.44-5.83,3.68-5.69S288,280.73,286,283.87Z" style="fill:#263238"></path><path d="M287.87,285.51l-5.22,4.32,4.89-4.69c2.7-2.59,5-4.52,5.22-4.32S290.75,283.13,287.87,285.51Z" style="fill:#263238"></path><path d="M289.16,287.64l-6.28,2.54,6.08-3c3.35-1.65,6.16-2.79,6.27-2.54S292.62,286.24,289.16,287.64Z" style="fill:#263238"></path><path d="M289.74,290.06l-6.75.52,6.7-1c3.69-.56,6.72-.79,6.75-.52S293.47,289.77,289.74,290.06Z" style="fill:#263238"></path><path d="M354.39,305.47s-.22-.21-.55-.66a11.31,11.31,0,0,1-1.14-2,25.64,25.64,0,0,1-1.85-7.48,47.63,47.63,0,0,1-.22-7.69,16.08,16.08,0,0,1,.33-3.16,25.15,25.15,0,0,1,0,3.17,65.73,65.73,0,0,0,.36,7.62,29.39,29.39,0,0,0,1.68,7.39C353.74,304.44,354.47,305.42,354.39,305.47Z" style="fill:#263238"></path><path d="M353.27,288.91c0-.05.32-.26.78.06a1,1,0,0,1,.4.85,1,1,0,0,1-.79.85,1,1,0,0,1-1.09-.43,1,1,0,0,1,0-.94c.27-.48.69-.45.67-.38s-.24.17-.33.53a.54.54,0,1,0,.88-.2C353.56,289,353.29,289,353.27,288.91Z" style="fill:#263238"></path><path d="M354.65,298s.32-.26.77.06a1,1,0,0,1,.41.85,1,1,0,0,1-.8.85,1,1,0,0,1-1.08-.43,1,1,0,0,1,0-.94c.27-.48.69-.45.68-.38s-.24.17-.34.53a.53.53,0,0,0,.63.72.52.52,0,0,0,.25-.92C354.94,298.09,354.66,298.11,354.65,298Z" style="fill:#263238"></path><path d="M198.71,305.47s-.22-.2-.54-.63a5.57,5.57,0,0,1-.53-.82,9.55,9.55,0,0,1-.6-1.16,23.65,23.65,0,0,1-1.82-7.23,46.09,46.09,0,0,1-.17-7.44,14.72,14.72,0,0,1,.34-3.07,23,23,0,0,1,0,3.08,64.67,64.67,0,0,0,.31,7.38,27.72,27.72,0,0,0,1.65,7.14C198.08,304.47,198.79,305.42,198.71,305.47Z" style="fill:#263238"></path><path d="M197.59,288.91c-.05-.05.32-.26.77.06a1,1,0,0,1,.41.85,1,1,0,0,1-.8.85,1,1,0,0,1-1.08-.43,1,1,0,0,1,0-.94c.28-.48.7-.45.68-.38s-.24.17-.34.53a.54.54,0,1,0,.89-.2C197.88,289,197.6,289,197.59,288.91Z" style="fill:#263238"></path><path d="M199,298s.32-.26.78.06a1,1,0,0,1,.4.85,1,1,0,0,1-1.88.42,1,1,0,0,1,0-.94c.27-.48.69-.45.67-.38s-.24.17-.33.53a.52.52,0,0,0,.62.72.53.53,0,0,0,.26-.92C199.25,298.09,199,298.11,199,298Z" style="fill:#263238"></path><path d="M463.8,305.47a3,3,0,0,1-.55-.66,12,12,0,0,1-1.14-2,25.64,25.64,0,0,1-1.85-7.48,47.63,47.63,0,0,1-.22-7.69,14.67,14.67,0,0,1,.34-3.16,29.73,29.73,0,0,1,0,3.17,66,66,0,0,0,.37,7.62,29.43,29.43,0,0,0,1.67,7.39C463.16,304.44,463.88,305.42,463.8,305.47Z" style="fill:#263238"></path><path d="M462.68,288.91c0-.05.33-.26.78.06a1,1,0,0,1,.4.85,1,1,0,0,1-.79.85,1,1,0,0,1-1.09-.43,1,1,0,0,1,0-.94c.27-.48.69-.45.68-.38s-.24.17-.34.53a.53.53,0,0,0,.63.72.52.52,0,0,0,.25-.92C463,289,462.7,289,462.68,288.91Z" style="fill:#263238"></path><path d="M464.06,298c-.05,0,.32-.26.77.06a.93.93,0,0,1-.39,1.7,1,1,0,0,1-1.08-.43,1,1,0,0,1,0-.94c.27-.48.69-.45.67-.38s-.24.17-.34.53a.54.54,0,1,0,.89-.2C464.35,298.09,464.07,298.11,464.06,298Z" style="fill:#263238"></path><path d="M138.24,215.28l40.94,60.2,172,1.52s-5.54-6.65-16.38-7.62c-8.38-.74-127.9-9.9-127.9-9.9-3.36-2.34-38.54-36.15-48.87-42.29C151.76,213.46,138.24,215.28,138.24,215.28Z" style="fill:#E1A860"></path><g style="opacity:0.4"><polygon points="150.28 232.98 177.52 232.98 186.14 240.72 155.66 240.9 150.28 232.98" style="fill:#fff"></polygon></g><path d="M343.54,271.64H343l-1.7,0-6.56-.14-24.11-.6L231,268.69l-46.43-1.35h-.11l-.07-.09c-11.92-15.45-22-28.52-29.15-37.75L147,218.73l-2.18-2.87-.55-.74a1.5,1.5,0,0,1-.17-.26,2.68,2.68,0,0,1,.2.24l.59.71c.51.66,1.26,1.6,2.23,2.83l8.37,10.68c7.16,9.21,17.31,22.24,29.3,37.64l-.18-.09,46.42,1.3,79.55,2.35,24.11.77,6.55.23,1.7.08Z" style="fill:#263238"></path><path d="M351.18,277s-.22,0-.64,0h-9l-26.24-.15-86.54-.69-49.6-.46h-.12l-.07-.11-29.45-43.46-8.36-12.41-2.2-3.3-.56-.86-.18-.3a3.09,3.09,0,0,1,.21.28l.59.83,2.26,3.26L149.77,232l29.61,43.36-.19-.11,49.6.42,86.54.84,26.23.32,7.13.11,1.85,0Z" style="fill:#263238"></path></g><g id="freepik--Character--inject-150"><path d="M616.77,252.82l.9-20.79s-26.43-3.36-42.48,0-23.42,20.79-23.42,20.79l13.68,5.78,21.18,29.06Z" style="fill:#E1A860"></path><g style="opacity:0.30000000000000004"><path d="M616.77,252.82l.9-20.79s-26.43-3.36-42.48,0-23.42,20.79-23.42,20.79l13.68,5.78,22.92,26.6Z"></path></g><path d="M575.31,186.7c3-.62,5.22-3,7.86-4.54a14.22,14.22,0,0,1,13.12-.41c4.09,2,7.09,4.6,7.69,9.12l-4.64,6" style="fill:#263238"></path><path d="M609.83,212.47l-4.23,49.81c-.72,8.47-3.51,20.76-16.85,19h0c-11.46-2.39-13.46-13.65-12.78-21.56.32-3.75.58-6.87.59-7.26,0,0-12.58-2.27-12.43-14.9.07-6.1,1.25-18.66,2.44-30a23.53,23.53,0,0,1,24-21l1.22,0C604.88,187.64,611.28,199.39,609.83,212.47Z" style="fill:#ffd4bd"></path><path d="M576.54,252.29A29.38,29.38,0,0,0,593.11,248s-4.11,9-16.68,7.55Z" style="fill:#fdb094"></path><path d="M568.37,213.53c.18.28,2,.08,4.17.93s3.51,2.24,3.81,2.14c.15,0,0-.47-.56-1.1a8,8,0,0,0-3-1.94,7.16,7.16,0,0,0-3.4-.51C568.62,213.15,568.27,213.4,568.37,213.53Z" style="fill:#263238"></path><path d="M587.75,216.58c.31.14,1.72-1,4-1.47s4.14,0,4.34-.27-.25-.4-1.06-.61a8.28,8.28,0,0,0-3.54,0,7.39,7.39,0,0,0-3.12,1.41C587.76,216.14,587.6,216.53,587.75,216.58Z" style="fill:#263238"></path><path d="M590.52,217.42a1.38,1.38,0,0,0,1.3,1.43,1.33,1.33,0,0,0,1.47-1.22A1.39,1.39,0,0,0,592,216.2,1.32,1.32,0,0,0,590.52,217.42Z" style="fill:#263238"></path><path d="M571.63,217.21a1.38,1.38,0,0,0,1.3,1.44,1.33,1.33,0,0,0,1.47-1.22,1.39,1.39,0,0,0-1.31-1.44A1.33,1.33,0,0,0,571.63,217.21Z" style="fill:#263238"></path><path d="M580.8,228.87a12.87,12.87,0,0,0-3.13-.65c-.5-.06-1-.17-1-.51a2.47,2.47,0,0,1,.37-1.46l1.55-3.74c2.17-5.32,3.75-9.7,3.53-9.78s-2.14,4.15-4.31,9.48c-.52,1.31-1,2.56-1.49,3.76a2.88,2.88,0,0,0-.31,1.93,1.26,1.26,0,0,0,.8.75,3.58,3.58,0,0,0,.84.14A12.75,12.75,0,0,0,580.8,228.87Z" style="fill:#263238"></path><path d="M588.49,207.46c.22.46,2,.06,4.25.11s4,.45,4.27,0c.11-.22-.24-.64-1-1a7.35,7.35,0,0,0-3.23-.76,7.54,7.54,0,0,0-3.27.68C588.75,206.83,588.39,207.24,588.49,207.46Z" style="fill:#263238"></path><path d="M568.84,209.59c.18.4,1.86.14,3.85.27s3.61.55,3.86.17c.11-.18-.18-.55-.85-.92a6.9,6.9,0,0,0-2.88-.77,7.14,7.14,0,0,0-3,.43C569.11,209.06,568.76,209.4,568.84,209.59Z" style="fill:#263238"></path><path d="M608.57,221.79c.22-.09,8.74-2.35,8.25,6.27s-9,6.36-9,6.11S608.57,221.79,608.57,221.79Z" style="fill:#ffd4bd"></path><path d="M610.6,231.05s.14.11.39.24a1.5,1.5,0,0,0,1.12.09c.93-.28,1.78-1.69,1.91-3.24a4.94,4.94,0,0,0-.3-2.17,1.74,1.74,0,0,0-1.07-1.22.78.78,0,0,0-.91.36c-.12.24-.08.41-.13.42s-.17-.15-.08-.5a.88.88,0,0,1,.37-.52,1.12,1.12,0,0,1,.84-.18,2.11,2.11,0,0,1,1.49,1.43,5.07,5.07,0,0,1,.39,2.43c-.15,1.74-1.14,3.31-2.4,3.6a1.61,1.61,0,0,1-1.36-.3C610.6,231.26,610.57,231.06,610.6,231.05Z" style="fill:#fdb094"></path><path d="M564,204.88a18.25,18.25,0,0,0,16.29-3.26c3.13-2.52,5.59-6.21,9.47-7.3a10.23,10.23,0,0,1,7.82,1.26,19.9,19.9,0,0,1,5.81,5.61c-2.6,6.36-1.13,13.56.36,20.26a3.43,3.43,0,0,0,1,2c1,.81,2.55.24,3.46-.67a10.74,10.74,0,0,0,2.48-5.57,35.49,35.49,0,0,0,.25-14,24.12,24.12,0,0,0-6.34-12.37,23,23,0,0,0-15.91-6.46,28.15,28.15,0,0,0-16.45,5.44,16.36,16.36,0,0,0-5.45,6" style="fill:#263238"></path><path d="M617.54,207.52A48.8,48.8,0,0,1,613,221.89c-.9-.73-2.25-.23-3.18.45-1.26.93-2.48,2.25-4.33,1.32a3.59,3.59,0,0,1-1.83-2.44,49.21,49.21,0,0,1-.1-20.89,15.76,15.76,0,0,0-4.51-4l.14.15c-3.38-1.56-7.23-3.14-10.71-1.82-2.7,1-4.47,3.55-6.61,5.49a20.91,20.91,0,0,1-15.16,5.09c-.52,3.51-.55,7.88-1.08,11.39L563,210c-1.77,3.78-6.51,3.33-6.51,3.33l-1.19-4.48c3.09-.17,6.13-3.73,6.13-3.73s-5.59,2.81-8.52.37l-.89-5.27c5.27,1,10.25-4.11,12.71-7.17a42.79,42.79,0,0,1,5.51-5.59c4.17-3.54,7.56-5.9,10.92-6.89,4.34-1.27,11.39-1.27,15.64.3s7.81,5.48,8,10c2.7-1.86,6.45-1.44,9.33.11,0,0,8.42,4.4,3.31,16.67" style="fill:#263238"></path><path d="M603.35,201.19c-.05,0-.46-.64-1.4-1.69a16.14,16.14,0,0,0-4.62-3.63,16.86,16.86,0,0,0-3.9-1.15,8.2,8.2,0,0,0-4.51.26c-3.06,1.2-5.1,4.56-8.29,6.84a19.54,19.54,0,0,1-10.19,4,23.24,23.24,0,0,1-2.48.08,2.41,2.41,0,0,0-1,.14c-.29.14-.62.37-.93.56-1.18.75-1.71,2.11-2.41,3.17a7.51,7.51,0,0,1-4.88,3.45,7.7,7.7,0,0,1-1.64.17,1.57,1.57,0,0,1-.57-.05c0-.07.79,0,2.15-.38a7.41,7.41,0,0,0,4.53-3.44c.66-1,1.14-2.47,2.51-3.4a11,11,0,0,1,1-.61,2.92,2.92,0,0,1,1.28-.21,22,22,0,0,0,2.41-.11,19.27,19.27,0,0,0,9.84-3.86,37.2,37.2,0,0,0,4.13-3.76,13.17,13.17,0,0,1,4.34-3.13,8.76,8.76,0,0,1,4.84-.23,16.7,16.7,0,0,1,4,1.28,14.94,14.94,0,0,1,4.61,3.89,11.07,11.07,0,0,1,1,1.35A1.58,1.58,0,0,1,603.35,201.19Z" style="fill:#455a64"></path><path d="M582.25,235c-.07-.22,1.66-.56,3-2a9.73,9.73,0,0,0,1.4-2.12c.31-.6.54-1,.63-.94s0,.46-.18,1.12a6.33,6.33,0,0,1-1.35,2.41,5.18,5.18,0,0,1-2.36,1.46C582.71,235.12,582.27,235.09,582.25,235Z" style="fill:#263238"></path><path d="M617.54,207.52a6,6,0,0,1-2.25.2,15.26,15.26,0,0,1-5.29-1.27,15.63,15.63,0,0,1-4.56-3,6,6,0,0,1-1.4-1.77c.07-.05.61.61,1.65,1.5a18.4,18.4,0,0,0,9.63,4.16C616.68,207.5,617.53,207.43,617.54,207.52Z" style="fill:#fff"></path><path d="M616.56,210.91a5.5,5.5,0,0,1-2.25.2,15,15,0,0,1-5.29-1.27,15.24,15.24,0,0,1-4.56-3,6,6,0,0,1-1.4-1.76c.07-.06.61.61,1.65,1.49a18.65,18.65,0,0,0,4.51,2.79,17.94,17.94,0,0,0,5.12,1.37C615.7,210.89,616.55,210.82,616.56,210.91Z" style="fill:#fff"></path><path d="M554.73,265.74s-7.88,6.29-13.67,18.55a130.82,130.82,0,0,0-8.47,24.08s-3.35,5.79-9.81,15.16-1.79,25.58-1.56,30.37,12.26,16.53,17.16,17.38,16.35-6.59,16.35-6.59Z" style="fill:#E1A860"></path><path d="M565.45,258.6l20.44,22.75,30.88-28.53s8.5,0,14.62,2.56c9.09,3.82,16.35,61.09,16.35,61.09l6.2,47.61,5.94,83.71-104.93.1h0l-.32-182.19Z" style="fill:#E1A860"></path><path d="M668.4,296.32H536.17s3.64-20.1,17.81-31.16l11.09-6.86,20.82,23.05,30.92-29.6a53.17,53.17,0,0,1,25,7.94C650.14,265,661,272.48,668.4,296.32Z" style="fill:#263238"></path><path d="M529.52,313.27c.83-1.27,1.45-2.93,3-3.13a7.55,7.55,0,0,1,3.58.65A58.28,58.28,0,0,1,554.63,322l-.17,12.77c-5.84-5.11-20.8-15-27.35-17.91C527.11,316.87,528.68,314.54,529.52,313.27Z" style="fill:#e0e0e0"></path><path d="M536.47,313c.07,0,.78,1.22,2,3.18a89.72,89.72,0,0,0,5.18,7.42,88.22,88.22,0,0,0,5.93,6.82,37.29,37.29,0,0,1,2.59,2.72,3.73,3.73,0,0,1-.81-.61c-.5-.41-1.2-1-2-1.85a65.55,65.55,0,0,1-6.08-6.76,64,64,0,0,1-5.08-7.55c-.58-1-1-1.84-1.3-2.43A3.47,3.47,0,0,1,536.47,313Z" style="fill:#263238"></path><path d="M531.51,319.8a3.76,3.76,0,0,1,.94.37c.58.26,1.42.68,2.44,1.21a78.59,78.59,0,0,1,7.72,4.67,80,80,0,0,1,7.13,5.5c.87.76,1.56,1.39,2,1.85s.71.71.68.74-1.14-.87-2.93-2.3-4.31-3.38-7.2-5.36-5.6-3.62-7.59-4.77A31,31,0,0,1,531.51,319.8Z" style="fill:#263238"></path><path d="M617.67,232c-1.91-.22-24.53,26.57-31.78,49.32,0,0-11.26-27.66-28.09-38.07a43.87,43.87,0,0,0-6,9.54l13.68,5.78.31,19.19L587,294.45l21.1-14.95L617.31,253Z" style="fill:#263238"></path><path d="M631.41,254.78a497.61,497.61,0,0,0-2.34,67.56h15.75l2.71,9.26L644.68,333l-89.93,2.43,0-11L619,321.91s-4.48-47.59,4.95-69.27A40,40,0,0,1,631.41,254.78Z" style="fill:#e0e0e0"></path><polygon points="656.71 398.04 554.83 401.48 554.89 414.87 657.45 411.35 656.71 398.04" style="fill:#e0e0e0"></polygon><path d="M584.59,447.79a3.89,3.89,0,0,1,.24-1.61,15.65,15.65,0,0,1,2.43-4,13.26,13.26,0,0,0,1.69-2.89,13.91,13.91,0,0,0,.78-3.9c.11-1.44.11-3,.13-4.62s0-3.37,0-5.19c-.09-14.56-.56-34.67-1.06-56.88s-1-42.31-1.35-56.89c-.17-7.26-.3-13.14-.39-17.24,0-2-.06-3.59-.08-4.69,0-.51,0-.92,0-1.22a2.56,2.56,0,0,1,0-.41,1.65,1.65,0,0,1,0,.41c0,.3,0,.7.06,1.22,0,1.1.11,2.67.18,4.68.13,4.1.32,10,.56,17.24.43,14.56,1,34.67,1.5,56.89s.91,42.32.9,56.89c0,1.82,0,3.55,0,5.2s-.05,3.18-.17,4.63a13.77,13.77,0,0,1-.84,4,13.29,13.29,0,0,1-1.76,2.92,16.42,16.42,0,0,0-2.49,3.93A6.12,6.12,0,0,0,584.59,447.79Z" style="fill:#263238"></path><path d="M609.13,387.65a8.24,8.24,0,0,1,1.41.45c.89.33,2.19.76,3.8,1.26A70.91,70.91,0,0,0,627.25,392a70.07,70.07,0,0,0,13.18.15c1.69-.14,3.05-.29,4-.42a7.84,7.84,0,0,1,1.46-.14,7.73,7.73,0,0,1-1.43.34c-.93.19-2.29.4-4,.59a62.32,62.32,0,0,1-26.24-2.81c-1.61-.54-2.9-1-3.76-1.42A7.4,7.4,0,0,1,609.13,387.65Z" style="fill:#E1A860"></path><path d="M561.82,389.82c0-.08,1.55-.53,4-1.49a50.9,50.9,0,0,0,9.14-4.75,49.78,49.78,0,0,0,7.95-6.54c1.86-1.88,2.89-3.16,3-3.1a5,5,0,0,1-.66.95,30.34,30.34,0,0,1-2,2.41,44.1,44.1,0,0,1-7.94,6.72,43.51,43.51,0,0,1-9.3,4.65,31.09,31.09,0,0,1-3,.93A4.25,4.25,0,0,1,561.82,389.82Z" style="fill:#E1A860"></path><path d="M581.3,306.78c0,.08-.6.07-1.07.74a1.54,1.54,0,0,0-.25,1.27,1.31,1.31,0,0,0,1.19.88,1.32,1.32,0,0,0,1.33-.66,1.58,1.58,0,0,0,0-1.3c-.35-.74-1-.83-.93-.91s.16-.06.41,0a1.7,1.7,0,0,1,.85.72,1.89,1.89,0,0,1,.14,1.67,1.76,1.76,0,0,1-1.8,1,1.79,1.79,0,0,1-1.62-1.27,1.89,1.89,0,0,1,.43-1.62,1.63,1.63,0,0,1,1-.57C581.16,306.69,581.3,306.75,581.3,306.78Z" style="fill:#E1A860"></path><path d="M557.74,242.69a2.32,2.32,0,0,1,.43.26l1.15.81c1,.7,2.4,1.82,4.06,3.26a70.89,70.89,0,0,1,11.33,12.85,100.48,100.48,0,0,1,8.43,14.93c.92,2,1.62,3.62,2.08,4.76l.52,1.32a1.76,1.76,0,0,1,.15.47,1.92,1.92,0,0,1-.25-.43l-.6-1.28c-.52-1.11-1.27-2.71-2.23-4.68a114.38,114.38,0,0,0-8.52-14.79,77.11,77.11,0,0,0-11.16-12.88c-1.62-1.46-3-2.62-3.93-3.37l-1.1-.89C557.86,242.82,557.73,242.71,557.74,242.69Z" style="fill:#455a64"></path><path d="M592.5,291.78a1.59,1.59,0,0,1,.13-.45c.13-.34.28-.75.47-1.24.41-1.09,1.06-2.63,1.92-4.52a113.16,113.16,0,0,1,17.49-27.15c1.36-1.56,2.5-2.8,3.31-3.62l.95-.94a2.19,2.19,0,0,1,.35-.31s-.08.15-.28.38l-.87,1c-.77.86-1.86,2.13-3.18,3.72a129.95,129.95,0,0,0-17.44,27.07c-.9,1.86-1.6,3.38-2.07,4.43l-.55,1.21A1.93,1.93,0,0,1,592.5,291.78Z" style="fill:#455a64"></path><path d="M579.65,284.16c-.1,0-.22-1.71-.82-4.39a36,36,0,0,0-1.37-4.62,36.45,36.45,0,0,0-5.79-10.23,37.32,37.32,0,0,0-3.26-3.56c-2-1.89-3.4-2.87-3.34-2.95a5.43,5.43,0,0,1,1,.64,12.44,12.44,0,0,1,1.14.84c.43.35.93.72,1.43,1.2a33.19,33.19,0,0,1,3.39,3.52,37.93,37.93,0,0,1,3.39,4.93,37.24,37.24,0,0,1,2.47,5.44,33.23,33.23,0,0,1,1.28,4.71c.15.68.22,1.31.3,1.86a11.73,11.73,0,0,1,.13,1.4A6.18,6.18,0,0,1,579.65,284.16Z" style="fill:#455a64"></path><path d="M633.94,274.68a17,17,0,0,1,.26,2.78c.13,1.71.34,4.07.7,6.66s.82,4.92,1.18,6.6a18.13,18.13,0,0,1,.52,2.74,12.86,12.86,0,0,1-.88-2.66,56.47,56.47,0,0,1-1.33-6.61,54.19,54.19,0,0,1-.55-6.72A13.54,13.54,0,0,1,633.94,274.68Z" style="fill:#455a64"></path><path d="M554.73,299.14c.15,0,.24,22.72.21,50.74s-.17,50.74-.31,50.74-.24-22.71-.21-50.74S554.59,299.14,554.73,299.14Z" style="fill:#263238"></path><g style="opacity:0.30000000000000004"><path d="M555.86,369.44a15.26,15.26,0,0,1,2.78-5.05c2-2.67,4-5.44,7-7s6.34-1.64,9.64-1.72c12.92-.31,26-.61,38.59,2.45,9.58,2.34,19.37,6.63,28.93,4.21,3.63-.92,8-2.69,11.11-.57l.24,4.61a97.68,97.68,0,0,1-14.84,9.6c-5.18,2.55-11,4.14-16.7,3.57-2.88-.28-5.77-1.1-8.62-.63-2.41.4-4.65,1.7-7.09,1.8-4.32.16-7.76-3.35-10.78-6.43-3.45-3.52-7.25-6.89-11.86-8.61s-10.24-1.48-14,1.71c-2.11,1.79-3.46,4.33-5.5,6.19s-5.37,2.91-7.5,1.16A5.23,5.23,0,0,1,555.86,369.44Z"></path></g><g style="opacity:0.30000000000000004"><path d="M645,332.9a33.4,33.4,0,0,1-5.43-29.79l8,28.49Z"></path></g><polyline points="565.07 324.02 562.21 260.01 555.67 264.1 555.67 325.38 564.13 324.05" style="fill:#e0e0e0"></polyline><path d="M587.45,296.29c-.15,0-.26-3.17-.72-7s-1.07-7-.92-7a7.65,7.65,0,0,1,.6,2,47.46,47.46,0,0,1,.84,5,44.55,44.55,0,0,1,.32,5A7.49,7.49,0,0,1,587.45,296.29Z" style="fill:#455a64"></path><path d="M668.4,296.32c5.28,17.48,16.36,49.64,13.72,55.51s-53.91,20.06-53.91,20.06L617.31,346l30.22-14.37-10.32-35.28" style="fill:#E1A860"></path><path d="M671.52,306.38s-8-.73-14.71,2.3-13.4,8.82-13.4,8.82l3.74,13.28s8.86-9.4,28.65-10.63Z" style="fill:#e0e0e0"></path><path d="M634,338s17,5.07,13.15,28.25l-10.7,3.3s2.51-20.88-12.61-27Z" style="fill:#e0e0e0"></path><path d="M657.09,363a2.91,2.91,0,0,1-.52.2l-1.52.5-5.84,1.86-20.93,6.51-.2.06L628,372l-10.94-25.91-.1-.23.23-.11,4-1.92,26.2-12.42-.12.27-6.76-23.51-1.86-6.64c-.21-.74-.36-1.33-.48-1.75-.05-.19-.08-.34-.11-.46s0-.15,0-.16,0,.05.06.15l.15.44q.19.64.54,1.74l2,6.6,6.93,23.46.06.19-.18.09-26.18,12.47-4,1.92.13-.33c4,9.51,7.7,18.38,10.87,25.94l-.27-.13,21-6.34L655,363.6l1.54-.44Z" style="fill:#263238"></path><path d="M647.53,331.6a2.21,2.21,0,0,1,.66-.4,11.64,11.64,0,0,1,2-.72,9.87,9.87,0,0,1,3.11-.31,15.67,15.67,0,0,1,3.76.73,14.49,14.49,0,0,1,5.87,3.63,11.54,11.54,0,0,1,1.33,1.62c.28.41.4.66.37.68s-.69-.85-2-2a15.76,15.76,0,0,0-5.77-3.4,16.5,16.5,0,0,0-3.63-.74,10.13,10.13,0,0,0-3,.19C648.56,331.21,647.57,331.69,647.53,331.6Z" style="fill:#263238"></path><polygon points="574.23 333.57 611.87 359.87 555.41 359.87 516.52 333.72 574.23 333.57" style="fill:#455a64"></polygon><path d="M624.62,350.35s-5,1.07-7.47,0-11-3.38-11-3.38l-9.78,1.93,4.62,4.3-19,3.73s-3,3.82,1.87,3.82,9.88.1,9.88.1-1.07,4.63,3.2,4.63a5.37,5.37,0,0,0,6.28,3s1.55,4.27,4.58,4.27,22.6-6.94,23.13-7.29.71-6.23-1.78-10.15S624.62,350.35,624.62,350.35Z" style="fill:#ffd4bd"></path><path d="M602.92,368.56a11.11,11.11,0,0,1,4.71-.75,11.18,11.18,0,0,1-4.71.75Z" style="fill:#fdb094"></path><path d="M597.21,366.16a22.75,22.75,0,0,1,6.58-1.92,11.43,11.43,0,0,1-3.22,1.21A11.85,11.85,0,0,1,597.21,366.16Z" style="fill:#fdb094"></path><path d="M591.59,360.75a35.45,35.45,0,0,1,4.61-.47,34.51,34.51,0,0,1,4.61-.4,15.11,15.11,0,0,1-4.57.91A14.63,14.63,0,0,1,591.59,360.75Z" style="fill:#fdb094"></path><path d="M539.24,353.27,543.1,350h10.66s1.25,2.38,0,3.29-6,1.47-6,1.47l1.22.83,14-4.12s5,1.88,1.82,4.12c0,0,1.47,3-.68,4.84L562,362.23s.79,1.36-1.13,3.4-4,5.48-6,5.23-4.65-.13-5.68-1a3.92,3.92,0,0,1-1-2.61s-3.51,1-4.19-1.14-1.25-3.62-1.25-3.62-.34.56-1.59-1.25-.34-4.43-.34-4.43S538.65,353.78,539.24,353.27Z" style="fill:#ffd4bd"></path><path d="M549.13,367.78c0-.14,2.92-1.26,6.53-2.78s6.48-2.84,6.55-2.71a7.91,7.91,0,0,1-1.79,1.07c-1.14.6-2.75,1.36-4.56,2.12s-3.49,1.37-4.71,1.77A8.22,8.22,0,0,1,549.13,367.78Z" style="fill:#fdb094"></path><path d="M545.43,362.54a22.21,22.21,0,0,0,3.09,0,20.32,20.32,0,0,0,7-2.47,67.23,67.23,0,0,1,6.69-3.48,14.22,14.22,0,0,1,2.18-.72,2.51,2.51,0,0,1,.84-.12c0,.08-1.14.36-2.87,1.17s-4,2.19-6.6,3.61a18.18,18.18,0,0,1-7.18,2.37,8.75,8.75,0,0,1-2.31-.11A2.25,2.25,0,0,1,545.43,362.54Z" style="fill:#fdb094"></path><path d="M545.58,357c-.05-.14.68-.52,1.64-.86s1.77-.51,1.82-.37-.69.52-1.64.86S545.62,357.09,545.58,357Z" style="fill:#fdb094"></path><path d="M562.67,336.48l-26.57-.15-5.8-2.68h7.44s.18-1.89,3.46-2.81A13,13,0,0,1,553,333.6l5.71.08Z" style="fill:#ebebeb"></path><path d="M617.61,345.71a5.11,5.11,0,0,1,1.16.48,29.71,29.71,0,0,1,3,1.68,20.9,20.9,0,0,1,7.68,8.18,18.23,18.23,0,0,1,.53,14.38,5.35,5.35,0,0,1-.55,1.13,37.91,37.91,0,0,0,1.12-4.49A18.38,18.38,0,0,0,629,356.28a21.65,21.65,0,0,0-7.41-8.1C619.18,346.57,617.57,345.79,617.61,345.71Z" style="fill:#263238"></path><g style="opacity:0.30000000000000004"><path d="M647.59,331.6A19.23,19.23,0,0,1,664,334.53a8.25,8.25,0,0,1,3,3.5,2.34,2.34,0,0,1-.1,2.27,2.41,2.41,0,0,1-1.78.75,9,9,0,0,1-5.37-1.74c-1.6-1.06-3-2.39-4.52-3.55a24.77,24.77,0,0,0-7.74-3.95"></path></g><g style="opacity:0.30000000000000004"><path d="M530.64,320.78c1-1,2.44-.32,3.66.27,5.44,2.65,9.94,6.95,15.33,9.89l2.34,2a154.75,154.75,0,0,1-18.22-6.73,7.51,7.51,0,0,1-3-2A2.67,2.67,0,0,1,530.64,320.78Z"></path></g></g><g id="freepik--Desk--inject-150"><path d="M714.21,447.79c0,.15-151.21.26-337.7.26s-337.74-.11-337.74-.26,151.18-.26,337.74-.26S714.21,447.65,714.21,447.79Z" style="fill:#263238"></path><path d="M500.12,338.85c0,.15-91,.26-203.2.26S93.7,339,93.7,338.85s91-.26,203.22-.26S500.12,338.71,500.12,338.85Z" style="fill:#e0e0e0"></path></g><g id="freepik--Plant--inject-150"><path d="M142.13,390.29c.79-2.74,2.49-5.39,5.11-6.52s5.89-.51,8.68.51,5.53,2.37,8.49,2.55,6.31-1.22,7.2-4.06c.83-2.66-.77-5.5-2.79-7.44a17.56,17.56,0,0,0-28.77,6.91" style="fill:#E1A860"></path><path d="M168.82,375.33a17.56,17.56,0,0,0-28.77,6.91l2.08,8.05c.79-2.74,2.49-5.39,5.11-6.52s5.89-.51,8.68.51,5.53,2.37,8.49,2.55,6.31-1.22,7.2-4.06C172.44,380.11,170.84,377.27,168.82,375.33Z" style="opacity:0.4"></path><path d="M118.65,402.2c-4.34-4.13-4.13-11.32-2-16.92s6.91-9.88,12.19-12.71a38.63,38.63,0,0,1,33.65-1.09,16,16,0,0,0-12.91,7.58c-2.39,4-2.92,8.76-4.88,12.94a20.39,20.39,0,0,1-26.09,10.2" style="fill:#E1A860"></path><path d="M116.56,377.38c-4.81-5.68-5.45-14.8-4.74-22.22s2.43-14.87,1.26-22.22c-.7-4.36-2.39-8.52-3-12.9s.24-9.32,3.63-12.14c3.9-3.25,10-2.48,14.09.56s6.4,7.84,8.11,12.61c3.77,10.48,5.16,22.11,2.06,32.81s-10.37,20.27-21,23.5" style="fill:#E1A860"></path><path d="M114.25,424a4,4,0,0,1,0-.65c0-.43,0-1.06,0-1.88.06-1.63.22-4,.58-6.88a92.33,92.33,0,0,1,1.85-10.08,46.56,46.56,0,0,1,4.6-11.67,48.46,48.46,0,0,1,7.52-10,47.82,47.82,0,0,1,7.88-6.56c1.2-.83,2.36-1.46,3.36-2s1.93-1,2.66-1.34l1.73-.73a4.72,4.72,0,0,1,.62-.23,3.71,3.71,0,0,1-.59.31l-1.69.79c-.72.38-1.61.84-2.62,1.39s-2.13,1.25-3.32,2.09A49.43,49.43,0,0,0,121.65,393c-4.42,7.74-5.64,15.88-6.52,21.59-.4,2.88-.59,5.22-.7,6.85-.05.78-.09,1.41-.11,1.87A3,3,0,0,1,114.25,424Z" style="fill:#263238"></path><path d="M72.73,355c-8.9,5.38-8.88,10.27-7.39,14.89s7,7.82,11.49,6.09c2.56-1,4.42-3.2,6-5.44s3.07-4.63,5.3-6.24,5.44-2.22,7.67-.63" style="fill:#E1A860"></path><g style="opacity:0.4"><path d="M72.73,355c-8.9,5.38-8.88,10.27-7.39,14.89s7,7.82,11.49,6.09c2.56-1,4.42-3.2,6-5.44s3.07-4.63,5.3-6.24a7.75,7.75,0,0,1,5.39-1.48Z"></path><path d="M93.52,362.78l2.28.85A4.92,4.92,0,0,0,93.52,362.78Z"></path></g><path d="M66.07,360.86c2.32-3.22,8.08-4.15,11.71-2.55s6.29,4.79,8.68,8,4.7,6.54,8,8.75,7.9,3,11.19.78a9.64,9.64,0,0,0,3.81-6.58,21.92,21.92,0,0,0-.53-7.77c-.78-3.73-2.07-7.64-5.06-10-3.33-2.64-8-2.77-12.2-2.63-4.88.16-9.83.53-14.41,2.22s-9.25,5.34-11.19,9.82" style="fill:#E1A860"></path><path d="M106.85,416.87a.8.8,0,0,1,0-.2q0-.23,0-.57c0-.54,0-1.28-.08-2.21-.06-1.95-.13-4.72-.23-8.13s-.25-7.52-.5-12.05-.59-9.51-1.28-14.69a46.16,46.16,0,0,0-1.47-7.47,38.4,38.4,0,0,0-2.73-6.53,37.61,37.61,0,0,0-3.44-5.4,35,35,0,0,0-3.76-4.13,28,28,0,0,0-6.67-4.55c-.43-.2-.81-.39-1.16-.53l-.87-.34-.53-.21-.18-.09s.07,0,.19.05l.55.18.89.3c.35.13.73.31,1.18.5a26.8,26.8,0,0,1,6.79,4.48,35.28,35.28,0,0,1,3.83,4.13,37.41,37.41,0,0,1,3.5,5.44,38.47,38.47,0,0,1,2.78,6.59,46.13,46.13,0,0,1,1.5,7.52c.69,5.21,1,10.2,1.25,14.73s.34,8.63.41,12.06.1,6.22.11,8.14v2.21c0,.23,0,.42,0,.57A.8.8,0,0,1,106.85,416.87Z" style="fill:#263238"></path><path d="M110.06,420.89a25.47,25.47,0,0,1-1-3.82,40.52,40.52,0,0,1-.41-10.75,71.52,71.52,0,0,1,3.4-15.59c1.82-5.73,4.31-11.85,6.43-18.44a84.76,84.76,0,0,0,2.55-9.76,87,87,0,0,0,1.27-9.31,134.82,134.82,0,0,0,.28-15.92c-.15-4.54-.39-8.21-.55-10.74-.07-1.25-.13-2.23-.17-2.92,0-.32,0-.57,0-.76a.86.86,0,0,1,0-.26,1.11,1.11,0,0,1,0,.26c0,.19,0,.44.07.75.06.7.14,1.67.25,2.92.2,2.53.48,6.2.67,10.74a131.86,131.86,0,0,1-.2,16,88,88,0,0,1-1.24,9.36,84.92,84.92,0,0,1-2.56,9.8c-2.13,6.61-4.62,12.73-6.46,18.44a72.54,72.54,0,0,0-3.47,15.5,42,42,0,0,0,.28,10.69c.22,1.25.42,2.22.6,2.86.07.31.13.55.18.74S110.06,420.89,110.06,420.89Z" style="fill:#263238"></path><polygon points="132.14 424.92 90.32 424.92 89.36 416.87 132.14 416.87 132.14 424.92" style="fill:#455a64"></polygon><polygon points="94.81 424 100.03 448.15 122.76 448.15 127.65 424 94.81 424" style="fill:#455a64"></polygon><path d="M132.14,424.92c0,.11-9.2.17-20.54.14s-20.53-.15-20.53-.26,9.19-.17,20.53-.14S132.14,424.81,132.14,424.92Z" style="fill:#455a64"></path><path d="M125,436.84a16.79,16.79,0,0,0-3.68-2.11,12.94,12.94,0,0,0-4.48-.9,15.54,15.54,0,0,0-5.51,1c-1.9.64-3.68,1.39-5.42,1.81a13.16,13.16,0,0,1-4.68.14,9.48,9.48,0,0,1-3-1,4.52,4.52,0,0,1-.73-.46,1.33,1.33,0,0,1-.23-.19,11.49,11.49,0,0,1,1,.51,10.3,10.3,0,0,0,3,.82,13.13,13.13,0,0,0,4.56-.22c1.67-.42,3.45-1.18,5.37-1.83a15.66,15.66,0,0,1,5.65-1,12.74,12.74,0,0,1,4.57,1,11.55,11.55,0,0,1,2.73,1.59,6.45,6.45,0,0,1,.65.56C124.9,436.75,125,436.83,125,436.84Z" style="fill:#263238"></path><path d="M124.64,438.45a17.7,17.7,0,0,0-3.54-2.08,11.71,11.71,0,0,0-4.31-.89,15.39,15.39,0,0,0-5.33,1c-1.84.61-3.57,1.33-5.22,1.77a13.54,13.54,0,0,1-4.5.51,7.65,7.65,0,0,1-2.95-.79,5.7,5.7,0,0,1-.71-.45,1,1,0,0,1-.22-.19s.35.2,1,.5a8.36,8.36,0,0,0,2.9.65,13.94,13.94,0,0,0,4.39-.58c1.62-.46,3.33-1.18,5.19-1.8a15.5,15.5,0,0,1,5.47-.95,11.66,11.66,0,0,1,4.41,1,11.81,11.81,0,0,1,2.62,1.58c.28.22.48.41.62.54S124.65,438.44,124.64,438.45Z" style="fill:#fff"></path><path d="M125.37,435.24a18.93,18.93,0,0,0-3.78-2.23,13.69,13.69,0,0,0-4.59-1.1,14.77,14.77,0,0,0-5.68,1,51.33,51.33,0,0,1-5.61,1.83,14.26,14.26,0,0,1-4.84,0,11,11,0,0,1-3.11-1,6.69,6.69,0,0,1-.75-.46c-.16-.13-.24-.19-.24-.21s.37.22,1.06.53a12,12,0,0,0,3.08.85,14.6,14.6,0,0,0,4.73-.09,55.44,55.44,0,0,0,5.55-1.85,14.8,14.8,0,0,1,5.83-1,13.74,13.74,0,0,1,4.69,1.21,13.52,13.52,0,0,1,2.78,1.68,7.15,7.15,0,0,1,.67.58C125.31,435.15,125.38,435.23,125.37,435.24Z" style="fill:#fff"></path><path d="M132.51,425c0,.11-9.41.2-21,.2s-21-.09-21-.2,9.4-.2,21-.2S132.51,424.84,132.51,425Z" style="fill:#263238"></path></g></svg>